<svg xmlns="http://www.w3.org/2000/svg" viewBox="0 0 72.66 72.52"><defs><style>.cls-1{fill:#8ec099;}.cls-2{fill:#fff;}</style></defs><g id="Layer_2" data-name="Layer 2"><g id="Layer_1-2" data-name="Layer 1"><g id="UoFhuT"><path class="cls-1" d="M0,36.09a36.33,36.33,0,0,1,72.66.22A36.33,36.33,0,0,1,0,36.09Z"/></g><path class="cls-2" d="M26.13,36.34c0-6,0-11.91,0-17.86,0-3,2-1.76,2.56-1.4,8.69,5.89,17.35,11.82,26,17.7,1.48,1,1.74,1.77.09,2.89C46.08,43.59,37.36,49.58,28.6,55.52c-1.82,1.23-2.44.9-2.45-1.32C26.1,48.24,26.13,42.29,26.13,36.34Z"/></g></g></svg>