<svg xmlns="http://www.w3.org/2000/svg" viewBox="0 0 72.66 72.52"><defs><style>.cls-1{fill:#f3775b;}.cls-2{fill:#f4f4f4;}</style></defs><g id="Layer_2" data-name="Layer 2"><g id="Layer_1-2" data-name="Layer 1"><g id="UoFhuT"><path class="cls-1" d="M0,36.09a36.33,36.33,0,0,1,72.66.22A36.33,36.33,0,0,1,0,36.09Z"/></g><path class="cls-2" d="M49.25,21.7c-6-4.92-13-6-20.14-2.63s-10.78,9.1-11.17,17c0,.37-.08.73-.16,1.36L15.31,34.9c-1.32-1.31-1.82-1.3-3.17,0l-.51.51c-1.26,1.27-1.26,1.82,0,3.09q3.93,3.95,7.88,7.88c1.29,1.29,1.87,1.27,3.2-.05q3.57-3.55,7.12-7.12c2.18-2.18,2.16-2.72-.16-4.74a1.59,1.59,0,0,0-2.51.07c-1,.94-1.91,1.9-3,3,.05-6.64,2.8-11,7.85-13.16a13,13,0,0,1,14.39,2.93A13.46,13.46,0,0,1,40.86,49c-.6.2-1.24.3-1.84.52a3,3,0,0,0-2,3.65,3,3,0,0,0,3.6,2.18A19,19,0,0,0,55.75,39.18,18.62,18.62,0,0,0,49.25,21.7Z"/></g></g></svg>