<svg xmlns="http://www.w3.org/2000/svg" viewBox="0 0 111.85 26.93"><defs><style>.cls-1{fill:#fcf3ca;}</style></defs><g id="Layer_2" data-name="Layer 2"><g id="Layer_1-2" data-name="Layer 1"><path class="cls-1" d="M21.78,26.71l-2.23-5.33H7.24L5,26.71H0L11.05,1.51h5L27,26.71ZM9,17.24h8.86L13.43,6.66Z"/><path class="cls-1" d="M46,8.55A8.48,8.48,0,0,1,49.16,12a11.32,11.32,0,0,1,1.13,5.15,11.14,11.14,0,0,1-1.11,5.08A8.31,8.31,0,0,1,46,25.67a9.15,9.15,0,0,1-4.75,1.22,8.33,8.33,0,0,1-3.82-.84,7.28,7.28,0,0,1-2.74-2.47v3.13H30V0H34.7V10.62a7,7,0,0,1,2.69-2.47,8.17,8.17,0,0,1,3.79-.84A9.07,9.07,0,0,1,46,8.55ZM44,21.22A5.92,5.92,0,0,0,45.54,17,5.87,5.87,0,0,0,44,12.85a5.52,5.52,0,0,0-7.81,0A5.87,5.87,0,0,0,34.7,17a5.91,5.91,0,0,0,1.52,4.21,5.49,5.49,0,0,0,7.81,0Z"/><path class="cls-1" d="M68.06,8.53A8.86,8.86,0,0,1,71.62,12a10,10,0,0,1,1.28,5.09,10.19,10.19,0,0,1-1.28,5.15,8.85,8.85,0,0,1-3.56,3.46,11.09,11.09,0,0,1-5.28,1.22,11.22,11.22,0,0,1-5.32-1.22,8.8,8.8,0,0,1-3.59-3.46,10.19,10.19,0,0,1-1.27-5.15A10,10,0,0,1,53.87,12a8.82,8.82,0,0,1,3.59-3.44,11.22,11.22,0,0,1,5.32-1.22A11.09,11.09,0,0,1,68.06,8.53Zm-9.24,4.39a6,6,0,0,0-1.51,4.22,6,6,0,0,0,1.51,4.21,5.17,5.17,0,0,0,4,1.62,5.08,5.08,0,0,0,3.89-1.62,5.92,5.92,0,0,0,1.51-4.21,5.93,5.93,0,0,0-1.51-4.22,5.08,5.08,0,0,0-3.89-1.62A5.17,5.17,0,0,0,58.82,12.92Z"/><path class="cls-1" d="M94.75,7.45V26.71H90V23.15q-2,3.74-6.7,3.74a6.68,6.68,0,0,1-5.11-2,7.54,7.54,0,0,1-1.88-5.4V7.45h4.72V18.14a4.41,4.41,0,0,0,1.1,3.17,4,4,0,0,0,3,1.15,4.45,4.45,0,0,0,3.53-1.58A5.92,5.92,0,0,0,90,17V7.45Z"/><path class="cls-1" d="M111.85,25.52A9.1,9.1,0,0,1,107,26.93,5.77,5.77,0,0,1,103,25.47a5.55,5.55,0,0,1-1.59-4.3V11.66h-2.7l0-3.42h2.73V3H106V8.24h5.51v3.42H106v8.68a2.84,2.84,0,0,0,.5,1.89,2,2,0,0,0,1.51.56,6.83,6.83,0,0,0,2.74-.79Z"/></g></g></svg>