<svg xmlns="http://www.w3.org/2000/svg" viewBox="0 0 375.2 130.39"><defs><style>.cls-1,.cls-3{fill:#fff;}.cls-1{opacity:0.25;isolation:isolate;}.cls-2{fill:#fcf3ca;}.cls-4{fill:#fbec87;}</style></defs><g id="Layer_2" data-name="Layer 2"><g id="Layer_1-2" data-name="Layer 1"><g id="Layer_2-2" data-name="Layer 2"><g id="Layer_1-2-2" data-name="Layer 1-2"><rect class="cls-1" width="375.2" height="130.39" rx="38.45"/><path class="cls-2" d="M55.08,31.18A12.71,12.71,0,0,0,50,30.08a12.48,12.48,0,0,0-6.39,1.69A12.64,12.64,0,0,0,50,55.35a13,13,0,0,0,5-1,14.88,14.88,0,0,0,4.42-2.89l2.72,3a18.39,18.39,0,0,1-5.78,3.83,17.22,17.22,0,0,1-15.27-.85,16.85,16.85,0,0,1-8.35-14.63A16.24,16.24,0,0,1,35,34.33a16.54,16.54,0,0,1,6.23-6,18,18,0,0,1,15.35-.91A16.21,16.21,0,0,1,62.12,31l-2.67,3.24A13.91,13.91,0,0,0,55.08,31.18Z"/><path class="cls-2" d="M84.24,35.86a11.53,11.53,0,0,1,4.51,4.44,13.93,13.93,0,0,1,0,13,11.34,11.34,0,0,1-4.51,4.47,14.56,14.56,0,0,1-13.26,0,11.53,11.53,0,0,1-4.51-4.44,13,13,0,0,1-1.62-6.56,13,13,0,0,1,1.62-6.51A11.65,11.65,0,0,1,71,35.86a14.56,14.56,0,0,1,13.26,0ZM73.29,39.2a7.7,7.7,0,0,0-3,3.12,9.54,9.54,0,0,0-1.06,4.54,9.66,9.66,0,0,0,1.06,4.6,7.6,7.6,0,0,0,3,3.13,9,9,0,0,0,8.65,0,7.66,7.66,0,0,0,3-3.13,9.9,9.9,0,0,0,1-4.6,9.66,9.66,0,0,0-1-4.54,7.9,7.9,0,0,0-3-3.12A8.82,8.82,0,0,0,73.29,39.2Z"/><path class="cls-2" d="M117.16,36.82a9.74,9.74,0,0,1,2.49,7.08V59.27h-4.37V45.07a6.1,6.1,0,0,0-5.48-6.67,6.31,6.31,0,0,0-1.15,0,7.46,7.46,0,0,0-5.42,2.14A8.37,8.37,0,0,0,100.85,46V59.3H96.48V34.4h4.37v5.27q2.49-5.31,9.45-5.41A9.15,9.15,0,0,1,117.16,36.82Z"/><path class="cls-2" d="M140.8,57.62a10.73,10.73,0,0,1-5.8,1.83,6.58,6.58,0,0,1-4.79-1.76,7.07,7.07,0,0,1-1.83-5.33V38.59h-3.53V35.25h3.53V28.58h4.41v6.67h7.62v3.34h-7.62v13a4.61,4.61,0,0,0,.76,3,2.73,2.73,0,0,0,2.25.89,7.86,7.86,0,0,0,3.86-1.17Z"/><path class="cls-2" d="M154,35.7a10.32,10.32,0,0,1,5.36-1.44v4.23a8,8,0,0,0-8.8,7.11c0,.18,0,.37,0,.55V59.27h-4.37V34.4h4.37v5.36A9,9,0,0,1,154,35.7Z"/><path class="cls-2" d="M181,35.86a11.53,11.53,0,0,1,4.51,4.44,13.93,13.93,0,0,1,0,13A11.34,11.34,0,0,1,181,57.81a14.56,14.56,0,0,1-13.26,0,11.53,11.53,0,0,1-4.51-4.44,13,13,0,0,1-1.62-6.56,13,13,0,0,1,1.62-6.51,11.53,11.53,0,0,1,4.51-4.44A14.56,14.56,0,0,1,181,35.86ZM170.06,39.2a7.7,7.7,0,0,0-3,3.12A9.54,9.54,0,0,0,166,46.86a9.66,9.66,0,0,0,1.06,4.6,7.6,7.6,0,0,0,3,3.13,9,9,0,0,0,8.65,0,7.66,7.66,0,0,0,3-3.13,9.79,9.79,0,0,0,1-4.6,9.53,9.53,0,0,0-1-4.54,7.9,7.9,0,0,0-3-3.12A8.82,8.82,0,0,0,170.06,39.2Z"/><path class="cls-2" d="M193.49,24.39h4.37V59.27h-4.37Z"/><path class="cls-2" d="M219.38,26.37h5.36l12,23.12,11.94-23.12h5.41v32.9h-4.23V33l-11.7,22.8h-2.78L223.57,33V59.27h-4.19Z"/><path class="cls-2" d="M280,35.86a11.53,11.53,0,0,1,4.51,4.44,13.93,13.93,0,0,1,0,13A11.34,11.34,0,0,1,280,57.81a14.56,14.56,0,0,1-13.26,0,11.53,11.53,0,0,1-4.51-4.44,13,13,0,0,1-1.62-6.56,13,13,0,0,1,1.62-6.51,11.53,11.53,0,0,1,4.51-4.44A14.56,14.56,0,0,1,280,35.86ZM269,39.2a7.9,7.9,0,0,0-3,3.12A9.53,9.53,0,0,0,265,46.86a9.79,9.79,0,0,0,1.05,4.6,7.66,7.66,0,0,0,3,3.13,8.49,8.49,0,0,0,4.35,1.1,8.31,8.31,0,0,0,4.3-1.1,7.6,7.6,0,0,0,3-3.13,9.66,9.66,0,0,0,1.06-4.6,9.54,9.54,0,0,0-1.06-4.54,7.7,7.7,0,0,0-3-3.12,8.31,8.31,0,0,0-4.3-1.13,8.42,8.42,0,0,0-4.27,1.13Z"/><path class="cls-2" d="M315.45,24.39V59.27h-4.37V54.33a9.87,9.87,0,0,1-3.78,3.83,11.12,11.12,0,0,1-5.53,1.34,11.9,11.9,0,0,1-6.22-1.62,11.15,11.15,0,0,1-4.21-4.51,14.18,14.18,0,0,1-1.51-6.61,13.75,13.75,0,0,1,1.51-6.51,11,11,0,0,1,4.21-4.44,12,12,0,0,1,6.18-1.59,11.34,11.34,0,0,1,5.59,1.31,9.38,9.38,0,0,1,3.76,3.81v-15ZM307,54.61a7.91,7.91,0,0,0,3-3.15,9.48,9.48,0,0,0,1.08-4.55A9.6,9.6,0,0,0,310,42.3a7.91,7.91,0,0,0-3-3.15,8.85,8.85,0,0,0-8.69,0,8.19,8.19,0,0,0-3,3.18,10.15,10.15,0,0,0,0,9.11,7.91,7.91,0,0,0,3,3.15,8.9,8.9,0,0,0,8.69,0Z"/><path class="cls-2" d="M343,37.67q3,3.4,3,9.47a10.53,10.53,0,0,1-.05,1.41H326.21a8.46,8.46,0,0,0,2.8,5.31,8.26,8.26,0,0,0,5.62,2,10.52,10.52,0,0,0,4.11-.8,10,10,0,0,0,3.31-2.26l2.4,2.49a12.61,12.61,0,0,1-4.45,3,14.63,14.63,0,0,1-5.73,1.08,13.2,13.2,0,0,1-6.51-1.58,11,11,0,0,1-4.42-4.44,13.28,13.28,0,0,1-1.58-6.53,13.2,13.2,0,0,1,1.58-6.51,11.43,11.43,0,0,1,4.39-4.47,12.72,12.72,0,0,1,6.44-1.62Q340,34.26,343,37.67Zm-1,7.5a7.22,7.22,0,0,0-7.11-7.31l-.6,0a7.88,7.88,0,0,0-5.48,2,8.27,8.27,0,0,0-2.6,5.31Z"/><path class="cls-3" d="M201.46,67.18H201L36.89,69s-2,0-2,1.13c0,1.5,2,1.5,2,1.5l163.8,2.93a3.94,3.94,0,0,0,.77.08,3.75,3.75,0,0,0,0-7.5Z"/><path class="cls-4" d="M229.66,109.78c-6.76-4.66-11.33-6-13.34-7.22-10.18-6.24-10.18-10.55-8-14.87l.14-.25a40.11,40.11,0,0,0-2.74-4.3,80.7,80.7,0,0,1-6.32-9.74c-.78-1.64-1.56-3.28.62-4.32s6.14,5.13,6.14,5.13a38,38,0,0,0,3.92,5.1l.11.18c-.35-2.85,1.29-3.63,1.29-3.63,1.48-.71,3.24.07,4.59,1V76.8a4,4,0,0,1,1.19-1.34c1.62-1.22,4.31.39,6,1.65h.12a3.58,3.58,0,0,1,3.28.12c3.63,1.28,6.51,6.62,6.51,6.62l5.43,10.32a11.09,11.09,0,0,0,3.62,2"/></g></g></g></g></svg>