<svg xmlns="http://www.w3.org/2000/svg" viewBox="0 0 464.58 94.3"><defs><style>.cls-1{fill:#fff;}.cls-2{fill:none;stroke:#fbf3c9;stroke-miterlimit:10;stroke-width:3px;}.cls-3{fill:#fbf3c9;}</style></defs><g id="Layer_2" data-name="Layer 2"><g id="Layer_1-2" data-name="Layer 1"><path class="cls-1" d="M25,32.8a1.25,1.25,0,0,1,.31-.75.91.91,0,0,1,.74-.33h7.28A1.23,1.23,0,0,1,34,32a.93.93,0,0,1,.39.77V44.44H46.61V32.8a1.06,1.06,0,0,1,1.1-1.08h7.16a1.44,1.44,0,0,1,.85.25.85.85,0,0,1,.37.78V67a1,1,0,0,1-.32.81,1.24,1.24,0,0,1-.83.27H47.71a1.17,1.17,0,0,1-.8-.27,1,1,0,0,1-.3-.81V53.11H34.43V67a1,1,0,0,1-.33.79,1.32,1.32,0,0,1-.89.29H26q-1,0-1.05-1Z"/><path class="cls-1" d="M62.14,52.57a16.37,16.37,0,0,1,2.19-8.19,16.1,16.1,0,0,1,2.5-3.24,15.37,15.37,0,0,1,3.25-2.48,16.27,16.27,0,0,1,3.86-1.6,16.61,16.61,0,0,1,4.32-.56,16,16,0,0,1,11.36,4.64,16.35,16.35,0,0,1,3.43,5.1,16.5,16.5,0,0,1,.68,10.66,16.47,16.47,0,0,1-1.61,3.86,15.93,15.93,0,0,1-5.75,5.74,15.86,15.86,0,0,1-8.11,2.17,16.61,16.61,0,0,1-4.32-.56,16.3,16.3,0,0,1-3.86-1.61A15.81,15.81,0,0,1,66.83,64a16.1,16.1,0,0,1-2.5-3.24,16.47,16.47,0,0,1-1.61-3.86A15.88,15.88,0,0,1,62.14,52.57Zm8.94,0a8.84,8.84,0,0,0,.51,3A7.13,7.13,0,0,0,73,58a6.51,6.51,0,0,0,2.23,1.62,6.83,6.83,0,0,0,3,.61,6.61,6.61,0,0,0,2.88-.61A6.51,6.51,0,0,0,83.25,58a7.36,7.36,0,0,0,1.37-2.44,9.68,9.68,0,0,0,0-6,8,8,0,0,0-1.37-2.5,6.73,6.73,0,0,0-2.18-1.7,6.47,6.47,0,0,0-2.88-.62A6.6,6.6,0,0,0,73,47.08a7.7,7.7,0,0,0-1.42,2.5A8.82,8.82,0,0,0,71.08,52.57Z"/><path class="cls-1" d="M99.18,38.8a1.7,1.7,0,0,1,.19-.79,1.58,1.58,0,0,1,.45-.6,2.39,2.39,0,0,1,1.32-.42h3.7a1.42,1.42,0,0,1,.74.17,1.57,1.57,0,0,1,.45.44,3.28,3.28,0,0,1,.32.62,6,6,0,0,0,.33.68l.2.48c.1.25.2.53.31.83l.34.86c.1.27.17.44.2.53q.73-.81,1.41-1.71a16.36,16.36,0,0,1,1.44-1.65A6.86,6.86,0,0,1,112.27,37a4.61,4.61,0,0,1,2.2-.49,13,13,0,0,1,2.37.2,10.43,10.43,0,0,1,2,.57,11.33,11.33,0,0,1,1.85,1c.61.39,1.28.85,2,1.37,1.13.61,1.34,1.5.64,2.7l-2.23,3.79a2,2,0,0,1-1.2.91,2.33,2.33,0,0,1-1.54-.22,7.51,7.51,0,0,0-2.15-1.53,5.75,5.75,0,0,0-2.48-.5A4.77,4.77,0,0,0,112,45a4.4,4.4,0,0,0-1.31.76A6.51,6.51,0,0,0,109.6,47c-.35.46-.69,1-1,1.52V66.22a2,2,0,0,1-.46,1.41,2,2,0,0,1-1.5.48h-5.52a1.68,1.68,0,0,1-1.91-1.89Z"/><path class="cls-1" d="M127.36,26.5a2,2,0,0,1,.44-1.45,1.88,1.88,0,0,1,1.37-.43h5.68a2.1,2.1,0,0,1,1.39.43,1.77,1.77,0,0,1,.53,1.45v4.78a1.77,1.77,0,0,1-.14.64,2.75,2.75,0,0,1-.38.66,2,2,0,0,1-.6.53,1.54,1.54,0,0,1-.8.21h-5.68c-1.21,0-1.81-.68-1.81-2Zm0,12.4a2.16,2.16,0,0,1,.44-1.35,1.64,1.64,0,0,1,1.37-.56h5.61a1.74,1.74,0,0,1,.64.13,2.28,2.28,0,0,1,.64.4,2.66,2.66,0,0,1,.5.6,1.47,1.47,0,0,1,.21.78V66.22a1.81,1.81,0,0,1-.52,1.41,2.07,2.07,0,0,1-1.47.48h-5.61c-1.21,0-1.81-.63-1.81-1.89Z"/><path class="cls-1" d="M142.35,38.78a1.91,1.91,0,0,1,.53-1.39,1.93,1.93,0,0,1,1.43-.52h20.63a2.15,2.15,0,0,1,1.38.48,1.68,1.68,0,0,1,.61,1.43V43c0,.15,0,.32,0,.52a1.25,1.25,0,0,1-.26.58l-13.5,16h12.1a2,2,0,0,1,1.41.48,1.93,1.93,0,0,1,.53,1.5V66a2.57,2.57,0,0,1-.13.75,2.22,2.22,0,0,1-.4.68,1.81,1.81,0,0,1-.61.49,1.75,1.75,0,0,1-.8.19h-21.6a1.61,1.61,0,0,1-.75-.19,2.29,2.29,0,0,1-.64-.48,2.16,2.16,0,0,1-.44-.67,1.9,1.9,0,0,1-.16-.77V62.62a3.52,3.52,0,0,1,.06-.66,1.43,1.43,0,0,1,.36-.67c1.09-1.2,2.24-2.52,3.44-3.93l3.64-4.3,3.65-4.31q1.82-2.13,3.45-4H144.31a1.79,1.79,0,0,1-2-2Z"/><path class="cls-1" d="M170.11,52.57a16.37,16.37,0,0,1,2.19-8.19,16.1,16.1,0,0,1,2.5-3.24,15.37,15.37,0,0,1,3.25-2.48,16.27,16.27,0,0,1,3.86-1.6,16.61,16.61,0,0,1,4.32-.56,16,16,0,0,1,11.36,4.64,16.35,16.35,0,0,1,3.43,5.1,16.5,16.5,0,0,1,.68,10.66,16.47,16.47,0,0,1-1.61,3.86,15.93,15.93,0,0,1-5.75,5.74,15.86,15.86,0,0,1-8.11,2.17,16.61,16.61,0,0,1-4.32-.56,16.3,16.3,0,0,1-3.86-1.61A15.81,15.81,0,0,1,174.8,64a16.1,16.1,0,0,1-2.5-3.24,16.47,16.47,0,0,1-1.61-3.86A15.88,15.88,0,0,1,170.11,52.57Zm8.94,0a8.84,8.84,0,0,0,.51,3A7.13,7.13,0,0,0,181,58a6.51,6.51,0,0,0,2.23,1.62,6.83,6.83,0,0,0,2.95.61,6.61,6.61,0,0,0,2.88-.61A6.51,6.51,0,0,0,191.22,58a7.36,7.36,0,0,0,1.37-2.44,9.68,9.68,0,0,0,0-6,8,8,0,0,0-1.37-2.5,6.73,6.73,0,0,0-2.18-1.7,6.47,6.47,0,0,0-2.88-.62A6.6,6.6,0,0,0,181,47.08a7.7,7.7,0,0,0-1.42,2.5A8.82,8.82,0,0,0,179.05,52.57Z"/><path class="cls-1" d="M207.79,37.43a1.43,1.43,0,0,1,.67-.34,3.39,3.39,0,0,1,.68-.08h3.7a1.81,1.81,0,0,1,.76.16,1.74,1.74,0,0,1,.54.43,2.43,2.43,0,0,1,.35.61c.09.23.18.46.26.71l.76,3.13a11.92,11.92,0,0,1,1.06-1.73,9.16,9.16,0,0,1,1.78-1.8,9.5,9.5,0,0,1,6-2,11.63,11.63,0,0,1,9,4,13.36,13.36,0,0,1,2.48,4.34,15.68,15.68,0,0,1,.89,5.3v16a2.14,2.14,0,0,1-.41,1.41,1.59,1.59,0,0,1-1.28.48h-5.66a2.17,2.17,0,0,1-1.45-.36,1.86,1.86,0,0,1-.39-1.38v-16a4.34,4.34,0,0,0-.48-2,5.88,5.88,0,0,0-1.26-1.67A6.15,6.15,0,0,0,224,45.61a5.28,5.28,0,0,0-2-.41,4.57,4.57,0,0,0-1.8.39,6,6,0,0,0-1.69,1.09,6.54,6.54,0,0,0-1.3,1.64,4.83,4.83,0,0,0-.6,2V66.29a2.19,2.19,0,0,1-.16.83,1.26,1.26,0,0,1-.48.64,2.23,2.23,0,0,1-.6.27,2.43,2.43,0,0,1-.64.08h-5.54a1.74,1.74,0,0,1-2-1.89V38.82a1.76,1.76,0,0,1,.21-.85,1.48,1.48,0,0,1,.58-.61Z"/><path class="cls-1" d="M244.44,32.14a1.34,1.34,0,0,1,.5-1.14,6,6,0,0,1,1.44-.72l5.56-1.94.23,0h.21a1.28,1.28,0,0,1,1.21.52,2.7,2.7,0,0,1,.31,1.39l0,7.72H258a1.77,1.77,0,0,1,1.27.46,1.84,1.84,0,0,1,.49,1.4v4.73a2,2,0,0,1-.49,1.5,1.74,1.74,0,0,1-1.27.48h-4.1l0,19.7a1.79,1.79,0,0,1-.54,1.41,2.17,2.17,0,0,1-1.49.48h-5.54a1.67,1.67,0,0,1-1.89-1.89l0-19.7h-1.79q-1.89,0-1.89-2V39.81A1.66,1.66,0,0,1,242.63,38h1.79Z"/><path class="cls-1" d="M294.86,66.29a2.36,2.36,0,0,1-.14.8,1.31,1.31,0,0,1-.49.6,1.25,1.25,0,0,1-.64.34,3.37,3.37,0,0,1-.64.08h-4.82a2.19,2.19,0,0,1-.84-.14,1.32,1.32,0,0,1-.51-.38,2.13,2.13,0,0,1-.33-.6c-.09-.24-.19-.49-.28-.77l-.71-1.84L284,65.79a12.47,12.47,0,0,1-1.73,1.38,10.41,10.41,0,0,1-2,1.07,6.58,6.58,0,0,1-2.35.43,15.79,15.79,0,0,1-8.1-2.17,15.36,15.36,0,0,1-3.22-2.5,15.7,15.7,0,0,1-2.49-3.24,16.06,16.06,0,0,1-1.61-3.86,16.69,16.69,0,0,1-.56-4.33,16.06,16.06,0,0,1,4.66-11.43,15.9,15.9,0,0,1,11.32-4.64,8.33,8.33,0,0,1,2.79.45A9.69,9.69,0,0,1,283,38.14a11.19,11.19,0,0,1,1.89,1.67,19.43,19.43,0,0,1,1.51,1.88l.95-3c.17-.41.3-.74.41-1a1.75,1.75,0,0,1,.34-.57.9.9,0,0,1,.45-.24,3.75,3.75,0,0,1,.76-.06H293a3.27,3.27,0,0,1,.64.07,1.25,1.25,0,0,1,.64.34,1.69,1.69,0,0,1,.49.62,2.13,2.13,0,0,1,.14.78ZM270.73,52.57a9.08,9.08,0,0,0,.5,3A7.33,7.33,0,0,0,272.67,58a6.65,6.65,0,0,0,2.24,1.62,6.73,6.73,0,0,0,2.9.61,7.52,7.52,0,0,0,3.05-.61A7.64,7.64,0,0,0,283.31,58a7.31,7.31,0,0,0,1.63-2.44,7.86,7.86,0,0,0-4.08-10.22,7.36,7.36,0,0,0-3.05-.62,6.59,6.59,0,0,0-2.9.62,6.86,6.86,0,0,0-2.24,1.7,7.94,7.94,0,0,0-1.44,2.5A9.06,9.06,0,0,0,270.73,52.57Z"/><path class="cls-1" d="M300.74,29.62a2.14,2.14,0,0,1,.4-1.33,1.55,1.55,0,0,1,1.34-.54h6a1.16,1.16,0,0,1,.52.14,1.79,1.79,0,0,1,.5.38,1.9,1.9,0,0,1,.39.59,1.7,1.7,0,0,1,.16.76v36.6a1.81,1.81,0,0,1-.52,1.41,2,2,0,0,1-1.36.48h-5.69a1.64,1.64,0,0,1-1.34-.48,2.14,2.14,0,0,1-.4-1.41Z"/><path class="cls-1" d="M342.71,32.68a.74.74,0,0,1,.16-.32,2,2,0,0,1,.33-.32,1.72,1.72,0,0,1,.42-.23,1,1,0,0,1,.41-.09h6.28A1.07,1.07,0,0,1,351,32a3.59,3.59,0,0,1,.44.45l.61,1.4L364.93,67a.73.73,0,0,1-.07.8,1.21,1.21,0,0,1-.93.31h-7a1.51,1.51,0,0,1-.87-.21,1.29,1.29,0,0,1-.48-.7q-.49-1.24-1-2.49l-.93-2.48h-13c-.31.83-.62,1.66-.94,2.48s-.63,1.66-.94,2.49a1.24,1.24,0,0,1-1.25.91h-7.23a1.21,1.21,0,0,1-.77-.25c-.21-.16-.24-.41-.11-.74Zm4.46,10.48c-.31.84-.62,1.74-.94,2.7s-.64,1.93-1,2.91-.62,1.95-.94,2.91-.63,1.85-.94,2.68h7.52Z"/><path class="cls-1" d="M366.92,67.17a.9.9,0,0,1,.12-.67c.13-.22.24-.4.34-.55l9.75-13.75L367.9,39.07a3.2,3.2,0,0,1-.42-.68,1.25,1.25,0,0,1-.13-.68.74.74,0,0,1,.31-.51,1.65,1.65,0,0,1,.95-.21h7.69a.91.91,0,0,1,.72.36,9.53,9.53,0,0,1,.7.91l4.68,7.57c.31-.44.67-1,1.08-1.67l1.26-2.11c.43-.73.85-1.43,1.25-2.12s.75-1.27,1-1.74a4.34,4.34,0,0,1,.77-.92,1.32,1.32,0,0,1,.85-.28h7.76a1.34,1.34,0,0,1,.56.12,1,1,0,0,1,.4.35.72.72,0,0,1,.12.51,1.11,1.11,0,0,1-.32.64l-9.58,13.52,9.53,13.33a5.16,5.16,0,0,1,.51.88,1.78,1.78,0,0,1,.18.86.87.87,0,0,1-.35.65,1.9,1.9,0,0,1-1.12.26H388.4a1.77,1.77,0,0,1-1.64-1.28L382.4,59,378,66.93a2.48,2.48,0,0,1-.69.86,1.32,1.32,0,0,1-.8.32H368a1.1,1.1,0,0,1-.59-.15,1.14,1.14,0,0,1-.41-.54Z"/><path class="cls-1" d="M402.15,26.5a1.94,1.94,0,0,1,.44-1.45,1.88,1.88,0,0,1,1.37-.43h5.68a2.1,2.1,0,0,1,1.39.43,1.77,1.77,0,0,1,.53,1.45v4.78a1.77,1.77,0,0,1-.14.64,2.75,2.75,0,0,1-.38.66,2,2,0,0,1-.6.53,1.54,1.54,0,0,1-.8.21H404c-1.21,0-1.81-.68-1.81-2Zm0,12.4a2.11,2.11,0,0,1,.44-1.35A1.64,1.64,0,0,1,404,37h5.61a1.74,1.74,0,0,1,.64.13,2.28,2.28,0,0,1,.64.4,2.66,2.66,0,0,1,.5.6,1.47,1.47,0,0,1,.21.78V66.22a1.85,1.85,0,0,1-.52,1.41,2.07,2.07,0,0,1-1.47.48H404c-1.21,0-1.81-.63-1.81-1.89Z"/><path class="cls-1" d="M422.09,58.43a7.14,7.14,0,0,0,1.43,1.11,11.43,11.43,0,0,0,1.49.74,7.94,7.94,0,0,0,1.24.4,4.2,4.2,0,0,0,.74.12l1.19,0a6.86,6.86,0,0,0,1.38-.22,3.11,3.11,0,0,0,1.14-.6,1.48,1.48,0,0,0,.48-1.18,1.93,1.93,0,0,0-.27-1.09,2.2,2.2,0,0,0-.78-.69,7.47,7.47,0,0,0-1.27-.5L427.19,56a20.45,20.45,0,0,1-4.86-1.89,10.72,10.72,0,0,1-3-2.46,8.17,8.17,0,0,1-1.56-2.93,12.31,12.31,0,0,1-.44-3.31,8.4,8.4,0,0,1,.81-3.7,8.21,8.21,0,0,1,2.3-2.85A11.11,11.11,0,0,1,424,37a16.57,16.57,0,0,1,7.52-.39,11.15,11.15,0,0,1,2.57.81,12.54,12.54,0,0,1,2.39,1.42,18.88,18.88,0,0,1,2.32,2.07,1.54,1.54,0,0,1,.43.92,1.3,1.3,0,0,1-.55.92c-.64.52-1.25,1-1.83,1.54s-1.18,1.07-1.8,1.69a1.3,1.3,0,0,1-.59.31,1.32,1.32,0,0,1-.56,0,1.66,1.66,0,0,1-.52-.25,1.93,1.93,0,0,1-.44-.42,4.27,4.27,0,0,0-2-1.28,7.16,7.16,0,0,0-2.05-.33,3.88,3.88,0,0,0-1.92.41,1.31,1.31,0,0,0-.66,1.28,1.38,1.38,0,0,0,.48,1,3.53,3.53,0,0,0,1.05.58,10.33,10.33,0,0,0,1.33.35,12.66,12.66,0,0,1,1.28.31,39.08,39.08,0,0,1,4.05,1.54,12.51,12.51,0,0,1,3.18,2,8.29,8.29,0,0,1,2.09,2.9,10.14,10.14,0,0,1,.75,4.12,9.51,9.51,0,0,1-1,4.33,9.32,9.32,0,0,1-2.66,3.21,12.25,12.25,0,0,1-4,2,17.7,17.7,0,0,1-5,.68,18.06,18.06,0,0,1-3.08-.27,14.49,14.49,0,0,1-3-.87A13.6,13.6,0,0,1,419,66.06a10.62,10.62,0,0,1-2.35-2.29,2.61,2.61,0,0,1-.41-.72,2,2,0,0,1-.12-.75,1.88,1.88,0,0,1,.15-.68,1.31,1.31,0,0,1,.42-.52l3.16-3.16a1.15,1.15,0,0,1,1.05-.35A3.48,3.48,0,0,1,422.09,58.43Z"/><line class="cls-2" x1="18.6" y1="88.2" x2="445.97" y2="88.2"/><polygon class="cls-3" points="22.77 94.3 0 88.2 22.77 82.1 22.77 94.3"/><polygon class="cls-3" points="441.81 94.3 464.58 88.2 441.81 82.1 441.81 94.3"/><line class="cls-2" x1="18.6" y1="6.1" x2="445.97" y2="6.1"/><polygon class="cls-3" points="22.77 12.2 0 6.1 22.77 0 22.77 12.2"/><polygon class="cls-3" points="441.81 12.2 464.58 6.1 441.81 0 441.81 12.2"/></g></g></svg>