<svg xmlns="http://www.w3.org/2000/svg" viewBox="0 0 330.25 145.23"><defs><style>.cls-1{fill:#fff;fill-opacity:0;}.cls-2{fill:#fcf3ca;}.cls-3{fill:#8ec099;}.cls-4{fill:#2c3234;}.cls-5{fill:#d8ded9;}.cls-6{fill:#f3775b;}.cls-7{fill:#fbec87;}</style></defs><g id="Layer_2" data-name="Layer 2"><g id="Layer_1-2" data-name="Layer 1"><g id="Layer_2-2" data-name="Layer 2"><g id="Layer_1-2-2" data-name="Layer 1-2"><rect class="cls-1" width="330.25" height="145.23" rx="38.45"/><path class="cls-2" d="M36.63,26.18h4.52v32.9H36.63Z"/><path class="cls-2" d="M70.8,36.64a9.73,9.73,0,0,1,2.49,7.07V59.08H68.92V44.89a6.11,6.11,0,0,0-6.62-6.66,7.58,7.58,0,0,0-5.43,2.14,8.4,8.4,0,0,0-2.38,5.43V59.1H50.12V34.22h4.37v5.26q2.49-5.31,9.45-5.4A9.15,9.15,0,0,1,70.8,36.64Z"/><path class="cls-2" d="M101.12,35.68a11,11,0,0,1,4.23,4.46,14.05,14.05,0,0,1,1.5,6.58,13.75,13.75,0,0,1-1.48,6.51,10.73,10.73,0,0,1-4.18,4.42A12,12,0,0,1,95,59.22a11.41,11.41,0,0,1-5.55-1.31,9.45,9.45,0,0,1-3.76-3.76V68.2H81.33v-34H85.7v4.93a9.59,9.59,0,0,1,3.74-3.76,11.08,11.08,0,0,1,5.47-1.31A12.06,12.06,0,0,1,101.12,35.68ZM98.37,54.29a7.78,7.78,0,0,0,3-3.15,9.76,9.76,0,0,0,1.06-4.56,9.44,9.44,0,0,0-1.08-4.51,8,8,0,0,0-3-3.15,8.2,8.2,0,0,0-4.27-1.13,8.31,8.31,0,0,0-4.3,1.13,7.91,7.91,0,0,0-3,3.15,10.1,10.1,0,0,0,0,9.09,7.92,7.92,0,0,0,3,3.13,8.73,8.73,0,0,0,8.6,0Z"/><path class="cls-2" d="M135,34.22V59.08h-4.42V53.82q-2.45,5.31-9.21,5.4a8.89,8.89,0,0,1-6.77-2.56,9.8,9.8,0,0,1-2.45-7.07V34.22h4.42V48.41a6.72,6.72,0,0,0,1.72,4.91A6.28,6.28,0,0,0,123,55.09a7,7,0,0,0,5.52-2.47,9.17,9.17,0,0,0,2-6.18V34.22Z"/><path class="cls-2" d="M156.81,57.44A10.68,10.68,0,0,1,151,59.27a6.66,6.66,0,0,1-4.79-1.76,7.12,7.12,0,0,1-1.83-5.34V38.4h-3.53V35.07h3.53V28.39h4.41v6.68h7.62V38.4h-7.62v13a4.61,4.61,0,0,0,.76,3,2.8,2.8,0,0,0,2.25.89,7.87,7.87,0,0,0,3.86-1.18Z"/><path class="cls-2" d="M174.86,26.18h5.35l12,23.13,11.94-23.13h5.4v32.9h-4.23l0-26.27L193.61,55.6h-2.77L179,32.81V59.08h-4.18Z"/><path class="cls-2" d="M235.51,35.68A11.48,11.48,0,0,1,240,40.12a12.9,12.9,0,0,1,1.62,6.51A13.07,13.07,0,0,1,240,53.16a11.54,11.54,0,0,1-4.51,4.47,14.6,14.6,0,0,1-13.25,0,11.51,11.51,0,0,1-4.52-4.45,12.92,12.92,0,0,1-1.62-6.55,12.9,12.9,0,0,1,1.62-6.51,11.55,11.55,0,0,1,4.52-4.44,14.54,14.54,0,0,1,13.25,0ZM224.56,39a7.73,7.73,0,0,0-3,3.13,9.53,9.53,0,0,0-1.06,4.53,9.72,9.72,0,0,0,1.06,4.61,7.6,7.6,0,0,0,3,3.13,9,9,0,0,0,8.65,0,7.66,7.66,0,0,0,3-3.13,9.84,9.84,0,0,0,1.06-4.61,9.64,9.64,0,0,0-1.06-4.53,7.92,7.92,0,0,0-3-3.13A8.82,8.82,0,0,0,224.56,39Z"/><path class="cls-2" d="M270.92,24.21V59.08h-4.37V54.15A9.92,9.92,0,0,1,262.77,58a11.05,11.05,0,0,1-5.52,1.34A11.93,11.93,0,0,1,251,57.7a11.24,11.24,0,0,1-4.21-4.52,14.13,14.13,0,0,1-1.5-6.6,13.74,13.74,0,0,1,1.5-6.51A11.17,11.17,0,0,1,251,35.63,11.84,11.84,0,0,1,257.2,34a11.32,11.32,0,0,1,5.59,1.32,9.24,9.24,0,0,1,3.76,3.8V24.21Zm-8.43,30.22a7.84,7.84,0,0,0,3-3.15,10.25,10.25,0,0,0,0-9.16,7.84,7.84,0,0,0-3-3.15,8.87,8.87,0,0,0-8.7,0,8.09,8.09,0,0,0-3,3.17,10.17,10.17,0,0,0,0,9.12,7.84,7.84,0,0,0,3,3.15,8.92,8.92,0,0,0,8.7,0Z"/><path class="cls-2" d="M298.42,37.49q3,3.4,3,9.47a10.69,10.69,0,0,1-.05,1.41H281.69a8.45,8.45,0,0,0,2.79,5.31,8.31,8.31,0,0,0,5.62,2,10.52,10.52,0,0,0,4.11-.8,9.77,9.77,0,0,0,3.32-2.25l2.39,2.49a12.58,12.58,0,0,1-4.41,3,14.64,14.64,0,0,1-5.74,1.08,13.3,13.3,0,0,1-6.51-1.57,11.17,11.17,0,0,1-4.42-4.44,13.41,13.41,0,0,1-1.57-6.54,13.3,13.3,0,0,1,1.57-6.51,11.5,11.5,0,0,1,4.4-4.46,12.72,12.72,0,0,1,6.44-1.62Q295.45,34.08,298.42,37.49Zm-1,7.49a7.21,7.21,0,0,0-7.1-7.3l-.61,0a7.87,7.87,0,0,0-5.47,2,8.29,8.29,0,0,0-2.6,5.3Z"/><path class="cls-3" d="M159.67,69.2a3.1,3.1,0,0,1,2.8,2.8,14.79,14.79,0,0,0,.05,1.63v28.08a14.79,14.79,0,0,0-.05,1.63,3.11,3.11,0,0,1-2.81,2.8c-.51,0-1,.06-1.53.06H141.27c-.54,0-1.08-.09-1.63-.06a3.23,3.23,0,0,1-2.82-3.27.36.36,0,0,1,0-.25.18.18,0,0,1,.07-.17,2.58,2.58,0,0,0,0-.68V73.57a1.89,1.89,0,0,0-.06-.67l-.06-.17a.39.39,0,0,1,0-.26,3.23,3.23,0,0,1,2.82-3.27c6.14-.12,12.27,0,18.4-.06C158.58,69.14,159.12,69.25,159.67,69.2Z"/><path class="cls-4" d="M160,79a1.57,1.57,0,0,1-1.5,1.44H141a1.57,1.57,0,0,1-1.6-1.54V73.28a1.54,1.54,0,0,1,1.43-1.55.4.4,0,0,1,.35-.06,2,2,0,0,0,.49,0h16a1.93,1.93,0,0,0,.48,0,.62.62,0,0,1,.44.08A1.47,1.47,0,0,1,160,73.06a.71.71,0,0,1,.08.43c-.06,1.71,0,3.43,0,5.14A.38.38,0,0,1,160,79Z"/><path class="cls-5" d="M152.21,101.5a2.4,2.4,0,0,1-1.9,2l-.6.1a.44.44,0,0,1-.35.07c-1.77-.07-3.54,0-5.32,0a16.64,16.64,0,0,0-1.73,0,.44.44,0,0,1-.35-.07,2.51,2.51,0,0,1-2.51-2.14v-.87a2.43,2.43,0,0,1,2.08-2,7.72,7.72,0,0,0,.81-.09.07.07,0,0,1,.1,0h6.72a3.86,3.86,0,0,1,1.43.19,2.36,2.36,0,0,1,1.61,1.93C152.21,100.92,152.2,101.21,152.21,101.5Z"/><path class="cls-6" d="M157.46,103.66a2.58,2.58,0,1,1,2.56-2.6h0A2.59,2.59,0,0,1,157.46,103.66Z"/><path class="cls-6" d="M157.42,95.92a2.58,2.58,0,1,1,2.6-2.56,2.59,2.59,0,0,1-2.6,2.56Z"/><path class="cls-6" d="M157.42,88.18a2.58,2.58,0,1,1,2.6-2.56h0a2.57,2.57,0,0,1-2.59,2.55Z"/><path class="cls-5" d="M152.22,93.76a2.54,2.54,0,0,1-5,0,6.32,6.32,0,0,0,0-.87,2.54,2.54,0,0,1,5,0A6.31,6.31,0,0,0,152.22,93.76Z"/><path class="cls-5" d="M144.48,93.76a2.54,2.54,0,0,1-5,0q0-.44,0-.87A2.53,2.53,0,0,1,142,90.77a2.5,2.5,0,0,1,2.48,2.13A8.22,8.22,0,0,0,144.48,93.76Z"/><path class="cls-5" d="M144.48,86a2.55,2.55,0,0,1-5,0q0-.44,0-.87A2.53,2.53,0,0,1,142,83a2.5,2.5,0,0,1,2.48,2.13A8.39,8.39,0,0,0,144.48,86Z"/><path class="cls-5" d="M152.22,86a2.55,2.55,0,0,1-5,0,6.32,6.32,0,0,0,0-.87,2.54,2.54,0,0,1,5,0Q152.21,85.57,152.22,86Z"/><path class="cls-7" d="M186.87,124.94c-6.75-4.66-11.32-6-13.34-7.22-10.18-6.23-10.18-10.55-8-14.87l.15-.25a40.11,40.11,0,0,0-2.74-4.3,80.58,80.58,0,0,1-6.32-9.73c-.78-1.64-1.56-3.28.62-4.33s6.14,5.13,6.14,5.13a36.56,36.56,0,0,0,3.92,5.1l.11.19C167,91.81,168.68,91,168.68,91c1.48-.7,3.24.08,4.59,1v-.06a4.25,4.25,0,0,1,1.19-1.34c1.62-1.21,4.31.39,6,1.65h.12a3.55,3.55,0,0,1,3.28.11c3.63,1.28,6.51,6.62,6.51,6.62l5.43,10.32a11.09,11.09,0,0,0,3.62,2"/></g></g></g></g></svg>