<svg xmlns="http://www.w3.org/2000/svg" viewBox="0 0 450.52 85.96"><defs><style>.cls-1{fill:#fff;}.cls-2{opacity:0;}.cls-3{fill:none;stroke:#fbf3c9;stroke-miterlimit:10;stroke-width:3px;}.cls-4{fill:#fbf3c9;}</style></defs><g id="Layer_2" data-name="Layer 2"><g id="Layer_1-2" data-name="Layer 1"><path class="cls-1" d="M6.69,51.19c.28.23.63.54,1.06.92a16.08,16.08,0,0,0,1.49,1.14,12.53,12.53,0,0,0,2.47,1.3,7.18,7.18,0,0,0,2.57.46,6.67,6.67,0,0,0,2.1-.28A3.52,3.52,0,0,0,17.71,54a2.59,2.59,0,0,0,.7-1.07,4,4,0,0,0,.21-1.3A1.89,1.89,0,0,0,18,50.25a5.78,5.78,0,0,0-1.41-1.06,11.81,11.81,0,0,0-1.73-.8l-1.57-.55a35.49,35.49,0,0,1-5.15-2.22A15.81,15.81,0,0,1,4.51,43a9.48,9.48,0,0,1-2.94-7.11,9.25,9.25,0,0,1,.92-4.14,9,9,0,0,1,2.62-3.18,12.41,12.41,0,0,1,4.1-2,18.31,18.31,0,0,1,5.37-.73,17.58,17.58,0,0,1,4.27.51,16.13,16.13,0,0,1,4,1.6c.56.33,1.08.67,1.58,1a16.36,16.36,0,0,1,1.31,1,5.94,5.94,0,0,1,.9.94,1.33,1.33,0,0,1,.33.75,1.09,1.09,0,0,1-.16.59,4.2,4.2,0,0,1-.48.62l-3.75,4a1.17,1.17,0,0,1-.83.42,1,1,0,0,1-.62-.2,6.89,6.89,0,0,1-.63-.49l-.22-.2c-.33-.27-.69-.56-1.09-.85a9.31,9.31,0,0,0-1.29-.8,8.7,8.7,0,0,0-1.44-.59A5.42,5.42,0,0,0,15,33.87a8.12,8.12,0,0,0-1.52.13,4.38,4.38,0,0,0-1.25.43,2.47,2.47,0,0,0-.86.77A2.09,2.09,0,0,0,11,36.37a2.13,2.13,0,0,0,.34,1.19,3.64,3.64,0,0,0,1,.93,10.59,10.59,0,0,0,1.71.81c.67.25,1.46.52,2.36.82q2.6.85,4.79,1.8A16,16,0,0,1,25,44.15a9.1,9.1,0,0,1,2.49,3.07,9.57,9.57,0,0,1,.9,4.34,10.72,10.72,0,0,1-1.11,4.89,11.13,11.13,0,0,1-3,3.73,14.14,14.14,0,0,1-4.52,2.39,18.08,18.08,0,0,1-5.59.85,15.9,15.9,0,0,1-5.54-1,21.3,21.3,0,0,1-5.07-2.7,14.62,14.62,0,0,1-1.65-1.4c-.45-.46-.81-.83-1.07-1.11l-.07-.07s0-.06-.05-.07,0,0,0,0S.63,57,.61,57l0,0A1.75,1.75,0,0,1,0,56,1.43,1.43,0,0,1,.56,55L4.8,51a1.64,1.64,0,0,1,.83-.37.89.89,0,0,1,.47.15A4.65,4.65,0,0,1,6.69,51.19Z"/><path class="cls-1" d="M59.31,59.23a16.38,16.38,0,0,1-4.85,3.1,14.82,14.82,0,0,1-5.71,1.11,16.68,16.68,0,0,1-6.34-1.22,16.5,16.5,0,0,1-5.24-3.4,16.09,16.09,0,0,1-3.58-5.11,15.42,15.42,0,0,1-1.32-6.39,16.57,16.57,0,0,1,.52-4.18,16.2,16.2,0,0,1,1.5-3.78,15.92,15.92,0,0,1,2.35-3.25,15.11,15.11,0,0,1,3.1-2.54,15.58,15.58,0,0,1,3.72-1.64,15.08,15.08,0,0,1,4.24-.58,14.87,14.87,0,0,1,3.95.53,15.37,15.37,0,0,1,3.58,1.52,16,16,0,0,1,5.48,5.36,14.36,14.36,0,0,1,1.56,3.48,13.5,13.5,0,0,1,.55,3.81c0,.84,0,1.54,0,2.08a2.26,2.26,0,0,1-.38,1.28,1.89,1.89,0,0,1-1.14.67,11.37,11.37,0,0,1-2.34.18H41.28a6.24,6.24,0,0,0,1,2.62A6.4,6.4,0,0,0,44,54.56a6.81,6.81,0,0,0,2.08.89,8.82,8.82,0,0,0,2.09.27A9.57,9.57,0,0,0,50,55.54a13.24,13.24,0,0,0,1.8-.49,9.67,9.67,0,0,0,1.59-.71,5.36,5.36,0,0,0,1.17-.85,4.43,4.43,0,0,1,.67-.47,1.17,1.17,0,0,1,.6-.16,1.15,1.15,0,0,1,.65.22,5.21,5.21,0,0,1,.75.63l2.59,2.94a1.78,1.78,0,0,1,.35.58,1.88,1.88,0,0,1,.07.53,1.34,1.34,0,0,1-.27.84A2.94,2.94,0,0,1,59.31,59.23ZM47.53,38.82a4.57,4.57,0,0,0-1.85.38,6.89,6.89,0,0,0-1.68,1,9.22,9.22,0,0,0-1.41,1.45,9.32,9.32,0,0,0-1,1.64H54.1A15.14,15.14,0,0,0,53,41.54a7.39,7.39,0,0,0-1.37-1.42,6,6,0,0,0-1.76-1A7.13,7.13,0,0,0,47.53,38.82Z"/><path class="cls-1" d="M69.82,27a1.32,1.32,0,0,1,.51-1.13,5.38,5.38,0,0,1,1.43-.73l5.56-1.93.23,0h.21a1.27,1.27,0,0,1,1.21.53,2.66,2.66,0,0,1,.31,1.38l0,7.72h4.09a1.78,1.78,0,0,1,1.27.47,1.81,1.81,0,0,1,.49,1.39v4.73a2,2,0,0,1-.49,1.51,1.74,1.74,0,0,1-1.27.48H79.26l0,19.69a1.79,1.79,0,0,1-.54,1.41,2.17,2.17,0,0,1-1.49.48H71.71a1.67,1.67,0,0,1-1.89-1.89l0-19.69H68c-1.26,0-1.89-.67-1.89-2V34.65A1.66,1.66,0,0,1,68,32.79H69.8Z"/><path class="cls-1" d="M115.76,27.52a.77.77,0,0,1,.16-.31,1.44,1.44,0,0,1,.33-.32,1.76,1.76,0,0,1,.42-.24,1.24,1.24,0,0,1,.41-.08h6.28a1,1,0,0,1,.71.26,3.59,3.59,0,0,1,.44.45l.61,1.4L138,61.85a.71.71,0,0,1-.07.79A1.17,1.17,0,0,1,137,63h-7a1.51,1.51,0,0,1-.87-.21,1.29,1.29,0,0,1-.48-.7c-.33-.83-.65-1.66-1-2.48l-.93-2.49h-13c-.31.83-.62,1.66-.94,2.49s-.63,1.65-.94,2.48a1.23,1.23,0,0,1-1.25.91h-7.23a1.2,1.2,0,0,1-.77-.24c-.21-.17-.24-.41-.11-.74ZM120.22,38c-.31.83-.62,1.73-.94,2.69s-.64,1.94-1,2.92-.62,2-.94,2.9-.63,1.85-.94,2.69H124Z"/><path class="cls-1" d="M161.77,53.37a2,2,0,0,1,.65-.31,2.58,2.58,0,0,1,.48-.06,1.61,1.61,0,0,1,.76.18,2,2,0,0,1,.71.73l2.74,4.14c.08.13.16.28.24.44a1.11,1.11,0,0,1,.11.39,1.22,1.22,0,0,1-.36.92,4.61,4.61,0,0,1-.77.63,18.79,18.79,0,0,1-4.4,2.24,15.13,15.13,0,0,1-5.06.84,15.73,15.73,0,0,1-4.25-.56,16.08,16.08,0,0,1-3.81-1.6,16.62,16.62,0,0,1-3.23-2.5,15.14,15.14,0,0,1-2.5-3.25,16.72,16.72,0,0,1-1.61-3.86,16.2,16.2,0,0,1-.57-4.32,16.22,16.22,0,0,1,2.18-8.2,15.27,15.27,0,0,1,2.5-3.23,15.74,15.74,0,0,1,7-4.08,15.73,15.73,0,0,1,4.25-.56,16.25,16.25,0,0,1,4.94.71,15.18,15.18,0,0,1,4.25,2.1l-.08-.07a2.76,2.76,0,0,1,.86.75,1.74,1.74,0,0,1,0,2l-2.18,3.7a2,2,0,0,1-1.67,1.2,1.78,1.78,0,0,1-.54-.11,2.94,2.94,0,0,1-.71-.38,11.35,11.35,0,0,0-2.31-1.16,7.48,7.48,0,0,0-2.64-.46,6.43,6.43,0,0,0-2.84.63,6.62,6.62,0,0,0-2.22,1.7,8,8,0,0,0-1.43,2.5,8.94,8.94,0,0,0,0,6,7.48,7.48,0,0,0,1.43,2.44,6.7,6.7,0,0,0,5.06,2.23,6.9,6.9,0,0,0,2.62-.49A11.62,11.62,0,0,0,161.77,53.37Z"/><path class="cls-1" d="M191,53.37a1.91,1.91,0,0,1,.65-.31,2.59,2.59,0,0,1,.47-.06,1.58,1.58,0,0,1,.76.18,2,2,0,0,1,.72.73l2.74,4.14a3.61,3.61,0,0,1,.23.44.93.93,0,0,1,.11.39,1.25,1.25,0,0,1-.35.92,4.68,4.68,0,0,1-.78.63,18.53,18.53,0,0,1-4.39,2.24,15.18,15.18,0,0,1-5.06.84A15.84,15.84,0,0,1,178,61.35a16.68,16.68,0,0,1-3.24-2.5,15.46,15.46,0,0,1-2.5-3.25,16.7,16.7,0,0,1-1.6-3.86,16.2,16.2,0,0,1-.58-4.32,16.5,16.5,0,0,1,2.18-8.2A15.61,15.61,0,0,1,174.8,36,16.25,16.25,0,0,1,178,33.5a16,16,0,0,1,8.06-2.15,16.25,16.25,0,0,1,4.94.71,15.31,15.31,0,0,1,4.25,2.1l-.08-.07a2.76,2.76,0,0,1,.86.75,1.73,1.73,0,0,1,.32,1.06,1.67,1.67,0,0,1-.3.91l-2.18,3.7a2,2,0,0,1-1.66,1.2,1.78,1.78,0,0,1-.54-.11,2.94,2.94,0,0,1-.71-.38,11.18,11.18,0,0,0-2.32-1.16,7.39,7.39,0,0,0-2.63-.46,6.39,6.39,0,0,0-2.84.63,6.52,6.52,0,0,0-2.22,1.7,8,8,0,0,0-1.43,2.5,8.94,8.94,0,0,0,0,6A7.48,7.48,0,0,0,181,52.88a6.59,6.59,0,0,0,2.22,1.63,6.66,6.66,0,0,0,2.84.6,6.94,6.94,0,0,0,2.62-.49A11.9,11.9,0,0,0,191,53.37Z"/><path class="cls-1" d="M226.38,59.23a16.64,16.64,0,0,1-4.85,3.1,14.86,14.86,0,0,1-5.71,1.11,16.7,16.7,0,0,1-6.35-1.22,16.5,16.5,0,0,1-5.24-3.4,16.25,16.25,0,0,1-3.58-5.11,15.42,15.42,0,0,1-1.32-6.39,16.13,16.13,0,0,1,.53-4.18,16.63,16.63,0,0,1,1.49-3.78,15.92,15.92,0,0,1,2.35-3.25,15.11,15.11,0,0,1,3.1-2.54,15.65,15.65,0,0,1,3.73-1.64,15.35,15.35,0,0,1,8.18-.05,15.79,15.79,0,0,1,9.06,6.88,14.36,14.36,0,0,1,1.56,3.48,13.15,13.15,0,0,1,.55,3.81c0,.84,0,1.54,0,2.08a2.26,2.26,0,0,1-.38,1.28,1.86,1.86,0,0,1-1.14.67,11.37,11.37,0,0,1-2.34.18H208.34a6.12,6.12,0,0,0,1,2.62,6.23,6.23,0,0,0,1.72,1.68,6.87,6.87,0,0,0,2.09.89,8.74,8.74,0,0,0,2.08.27,9.49,9.49,0,0,0,1.81-.18,13.24,13.24,0,0,0,1.8-.49,10.18,10.18,0,0,0,1.6-.71,5.28,5.28,0,0,0,1.16-.85,4.43,4.43,0,0,1,.67-.47,1.17,1.17,0,0,1,.6-.16,1.13,1.13,0,0,1,.65.22,5.21,5.21,0,0,1,.75.63l2.6,2.94a1.73,1.73,0,0,1,.34.58,1.88,1.88,0,0,1,.07.53,1.34,1.34,0,0,1-.27.84A3.13,3.13,0,0,1,226.38,59.23ZM214.59,38.82a4.61,4.61,0,0,0-1.85.38,7.28,7.28,0,0,0-1.68,1,8.74,8.74,0,0,0-1.4,1.45,8.83,8.83,0,0,0-1,1.64h12.52A15.14,15.14,0,0,0,220,41.54a7.1,7.1,0,0,0-1.37-1.42,5.87,5.87,0,0,0-1.76-1A7.09,7.09,0,0,0,214.59,38.82Z"/><path class="cls-1" d="M235,24.46a2.19,2.19,0,0,1,.39-1.32,1.55,1.55,0,0,1,1.35-.54h6a1.17,1.17,0,0,1,.52.13,2,2,0,0,1,.5.38,2.52,2.52,0,0,1,.39.59,1.73,1.73,0,0,1,.16.76v36.6a1.82,1.82,0,0,1-.53,1.41,1.93,1.93,0,0,1-1.36.48h-5.68a1.65,1.65,0,0,1-1.35-.48,2.19,2.19,0,0,1-.39-1.41Z"/><path class="cls-1" d="M276.26,59.23a16.64,16.64,0,0,1-4.85,3.1,14.86,14.86,0,0,1-5.71,1.11,16.73,16.73,0,0,1-6.35-1.22,16.5,16.5,0,0,1-5.24-3.4,16.25,16.25,0,0,1-3.58-5.11,15.42,15.42,0,0,1-1.32-6.39,16.13,16.13,0,0,1,.53-4.18,16.63,16.63,0,0,1,1.49-3.78,16.3,16.3,0,0,1,2.35-3.25,15.38,15.38,0,0,1,3.1-2.54,15.65,15.65,0,0,1,3.73-1.64,15.35,15.35,0,0,1,8.18-.05,15.79,15.79,0,0,1,9.06,6.88,14.36,14.36,0,0,1,1.56,3.48,13.15,13.15,0,0,1,.55,3.81c0,.84,0,1.54,0,2.08a2.26,2.26,0,0,1-.38,1.28,1.83,1.83,0,0,1-1.13.67,11.5,11.5,0,0,1-2.34.18H258.22a6,6,0,0,0,2.73,4.3,6.71,6.71,0,0,0,2.08.89,8.74,8.74,0,0,0,2.08.27,9.49,9.49,0,0,0,1.81-.18,13.24,13.24,0,0,0,1.8-.49,10.18,10.18,0,0,0,1.6-.71,5.05,5.05,0,0,0,1.16-.85,4.43,4.43,0,0,1,.67-.47,1.17,1.17,0,0,1,.6-.16,1.13,1.13,0,0,1,.65.22,5.21,5.21,0,0,1,.75.63l2.6,2.94a1.73,1.73,0,0,1,.34.58,1.88,1.88,0,0,1,.07.53,1.34,1.34,0,0,1-.27.84A3.13,3.13,0,0,1,276.26,59.23ZM264.47,38.82a4.61,4.61,0,0,0-1.85.38,7,7,0,0,0-1.67,1,8.41,8.41,0,0,0-1.41,1.45,8.83,8.83,0,0,0-1,1.64H271a13.92,13.92,0,0,0-1.12-1.76,7.1,7.1,0,0,0-1.37-1.42,5.87,5.87,0,0,0-1.76-1A7,7,0,0,0,264.47,38.82Z"/><path class="cls-1" d="M284.88,33.65a1.87,1.87,0,0,1,.18-.8,1.91,1.91,0,0,1,.46-.6,2.41,2.41,0,0,1,1.32-.41h3.7a1.33,1.33,0,0,1,.74.17,1.45,1.45,0,0,1,.45.44,3.18,3.18,0,0,1,.32.61,5.41,5.41,0,0,0,.33.69,5,5,0,0,1,.19.47c.1.26.21.54.32.84s.23.58.33.85l.21.53c.49-.54,1-1.1,1.41-1.7a15.4,15.4,0,0,1,1.43-1.65A6.79,6.79,0,0,1,298,31.84a4.65,4.65,0,0,1,2.21-.49,12.89,12.89,0,0,1,2.36.19,9.85,9.85,0,0,1,2,.58,11.36,11.36,0,0,1,1.85,1c.61.39,1.27.84,2,1.37,1.13.6,1.34,1.5.64,2.69L306.76,41a2.06,2.06,0,0,1-1.2.91,2.33,2.33,0,0,1-1.54-.22,7.9,7.9,0,0,0-2.15-1.54,6,6,0,0,0-2.49-.5,4.76,4.76,0,0,0-1.67.27,4.28,4.28,0,0,0-1.31.76,7,7,0,0,0-1.11,1.18c-.34.45-.68,1-1,1.52V61.06a1.67,1.67,0,0,1-2,1.89h-5.51a1.68,1.68,0,0,1-1.91-1.89Z"/><path class="cls-1" d="M342.73,61.14a2.09,2.09,0,0,1-.15.79,1.17,1.17,0,0,1-.49.6,1.23,1.23,0,0,1-.64.35,3.19,3.19,0,0,1-.64.07H336a2.21,2.21,0,0,1-.84-.13,1.32,1.32,0,0,1-.51-.38,2.45,2.45,0,0,1-.33-.6c-.09-.24-.18-.5-.28-.78l-.71-1.83c-.44.44-.93.91-1.45,1.41A13.26,13.26,0,0,1,330.14,62a10.67,10.67,0,0,1-2,1.07,6.57,6.57,0,0,1-2.35.42,15.9,15.9,0,0,1-4.28-.56,16.15,16.15,0,0,1-3.82-1.6,15.95,15.95,0,0,1-5.71-5.75,15.87,15.87,0,0,1-1.6-3.86A16.19,16.19,0,0,1,314.43,36a15.79,15.79,0,0,1,11.32-4.64,8.33,8.33,0,0,1,2.79.45A9.58,9.58,0,0,1,330.86,33a11.46,11.46,0,0,1,1.88,1.66,18.38,18.38,0,0,1,1.51,1.89l1-3c.16-.4.29-.73.4-1A1.69,1.69,0,0,1,336,32a.91.91,0,0,1,.45-.25,3.75,3.75,0,0,1,.76-.06h3.65a3.28,3.28,0,0,1,.64.08,1.21,1.21,0,0,1,.64.34,1.56,1.56,0,0,1,.49.61,2,2,0,0,1,.15.79ZM318.59,47.42a8.78,8.78,0,0,0,.51,3,7.15,7.15,0,0,0,1.43,2.44,6.78,6.78,0,0,0,2.24,1.63,6.87,6.87,0,0,0,2.9.6,7.75,7.75,0,0,0,5.5-2.23,7.31,7.31,0,0,0,1.63-2.44,7.95,7.95,0,0,0,0-6,7.78,7.78,0,0,0-1.63-2.5,7.54,7.54,0,0,0-2.45-1.7,7.33,7.33,0,0,0-3.05-.63,6.59,6.59,0,0,0-2.9.63,6.7,6.7,0,0,0-2.24,1.7,7.62,7.62,0,0,0-1.43,2.5A8.78,8.78,0,0,0,318.59,47.42Z"/><path class="cls-1" d="M350.49,27a1.33,1.33,0,0,1,.5-1.13,5.63,5.63,0,0,1,1.44-.73L358,23.19l.23,0h.21a1.28,1.28,0,0,1,1.21.53,2.66,2.66,0,0,1,.31,1.38l0,7.72H364a1.78,1.78,0,0,1,1.27.47,1.81,1.81,0,0,1,.49,1.39v4.73a2,2,0,0,1-.49,1.51,1.74,1.74,0,0,1-1.27.48h-4.1l0,19.69a1.79,1.79,0,0,1-.54,1.41,2.17,2.17,0,0,1-1.49.48h-5.54a1.67,1.67,0,0,1-1.89-1.89l0-19.69h-1.79c-1.26,0-1.89-.67-1.89-2V34.65a1.66,1.66,0,0,1,1.89-1.86h1.79Z"/><path class="cls-1" d="M369.62,21.35a2,2,0,0,1,.45-1.46,1.92,1.92,0,0,1,1.37-.43h5.68a2.16,2.16,0,0,1,1.39.43,1.79,1.79,0,0,1,.52,1.46v4.78a1.69,1.69,0,0,1-.13.63,3,3,0,0,1-.38.67,2,2,0,0,1-.6.52,1.54,1.54,0,0,1-.8.21h-5.68c-1.21,0-1.82-.68-1.82-2Zm0,12.4a2.07,2.07,0,0,1,.45-1.35,1.61,1.61,0,0,1,1.37-.56h5.61a1.74,1.74,0,0,1,.64.13,2.2,2.2,0,0,1,.63.39,2.46,2.46,0,0,1,.51.6,1.57,1.57,0,0,1,.2.79V61.06a1.84,1.84,0,0,1-.51,1.41,2.07,2.07,0,0,1-1.47.48h-5.61c-1.21,0-1.82-.63-1.82-1.89Z"/><path class="cls-1" d="M384,47.42a16.1,16.1,0,0,1,2.19-8.2,16,16,0,0,1,2.5-3.23,15.5,15.5,0,0,1,3.25-2.49,16.26,16.26,0,0,1,8.18-2.15,16,16,0,0,1,6.26,1.23A15.81,15.81,0,0,1,411.43,36a16.22,16.22,0,0,1,3.44,5.09,15.91,15.91,0,0,1,1.26,6.34,16.2,16.2,0,0,1-.58,4.32,15.92,15.92,0,0,1-1.62,3.86,15.46,15.46,0,0,1-2.5,3.25,16.1,16.1,0,0,1-3.24,2.5,16.3,16.3,0,0,1-3.84,1.6,15.83,15.83,0,0,1-4.27.56,16.14,16.14,0,0,1-8.18-2.16,15.85,15.85,0,0,1-5.75-5.75,16.75,16.75,0,0,1-1.62-3.86A16.2,16.2,0,0,1,384,47.42Zm8.94,0a9,9,0,0,0,.5,3,7.46,7.46,0,0,0,1.42,2.44,6.73,6.73,0,0,0,2.23,1.63,7.05,7.05,0,0,0,3,.6,6.67,6.67,0,0,0,2.87-.6,6.34,6.34,0,0,0,2.18-1.63,7.21,7.21,0,0,0,1.38-2.44,9.84,9.84,0,0,0,0-6,7.69,7.69,0,0,0-1.38-2.5,6.28,6.28,0,0,0-2.18-1.7A6.4,6.4,0,0,0,400,39.6a6.77,6.77,0,0,0-3,.63,6.66,6.66,0,0,0-2.23,1.7,8,8,0,0,0-1.42,2.5A9,9,0,0,0,392.9,47.42Z"/><path class="cls-1" d="M421.64,32.27a1.48,1.48,0,0,1,.67-.34,3.27,3.27,0,0,1,.68-.07h3.7a1.67,1.67,0,0,1,.76.16,1.57,1.57,0,0,1,.53.42,2.24,2.24,0,0,1,.36.62c.09.22.17.46.26.7l.76,3.13a11.88,11.88,0,0,1,1.06-1.72,9.2,9.2,0,0,1,1.78-1.81,10.25,10.25,0,0,1,2.56-1.42,9.54,9.54,0,0,1,3.44-.57,11.84,11.84,0,0,1,5.07,1.07,11.64,11.64,0,0,1,3.88,2.94,13.35,13.35,0,0,1,2.49,4.34,15.64,15.64,0,0,1,.88,5.3v16a2.14,2.14,0,0,1-.4,1.41,1.6,1.6,0,0,1-1.29.48h-5.66a2.22,2.22,0,0,1-1.44-.35,1.88,1.88,0,0,1-.39-1.39v-16a4.3,4.3,0,0,0-.48-2,5.88,5.88,0,0,0-1.26-1.67,6.29,6.29,0,0,0-1.78-1.14,5.15,5.15,0,0,0-2-.42,4.57,4.57,0,0,0-1.8.39,6.38,6.38,0,0,0-3,2.74,4.83,4.83,0,0,0-.6,2V61.14a2.22,2.22,0,0,1-.16.83,1.38,1.38,0,0,1-.48.64,2.23,2.23,0,0,1-.6.27,2.54,2.54,0,0,1-.65.07H423a2,2,0,0,1-1.52-.51,2,2,0,0,1-.47-1.38V33.67a1.79,1.79,0,0,1,.21-.86,1.55,1.55,0,0,1,.58-.61Z"/><g class="cls-2"><line class="cls-3" x1="35.98" y1="18.6" x2="35.98" y2="67.35"/><polygon class="cls-4" points="29.88 22.77 35.98 0 42.08 22.77 29.88 22.77"/><polygon class="cls-4" points="29.88 63.19 35.98 85.96 42.08 63.19 29.88 63.19"/></g><g class="cls-2"><line class="cls-3" x1="414.55" y1="18.6" x2="414.55" y2="67.35"/><polygon class="cls-4" points="408.44 22.77 414.55 0 420.65 22.77 408.44 22.77"/><polygon class="cls-4" points="408.44 63.19 414.55 85.96 420.65 63.19 408.44 63.19"/></g></g></g></svg>