<svg xmlns="http://www.w3.org/2000/svg" viewBox="0 0 464.58 94.3"><defs><style>.cls-1{fill:#fff;}.cls-2{opacity:0;}.cls-3{fill:none;stroke:#fbf3c9;stroke-miterlimit:10;stroke-width:3px;}.cls-4{fill:#fbf3c9;}</style></defs><g id="Layer_2" data-name="Layer 2"><g id="Layer_1-2" data-name="Layer 1"><path class="cls-1" d="M78.73,55.49c.28.22.64.53,1.07.91a12.22,12.22,0,0,0,1.48,1.14,12.08,12.08,0,0,0,2.48,1.3,7.14,7.14,0,0,0,2.57.47A6.91,6.91,0,0,0,88.42,59a3.56,3.56,0,0,0,1.34-.75,2.73,2.73,0,0,0,.7-1.08,4.26,4.26,0,0,0,.2-1.3,1.91,1.91,0,0,0-.57-1.35,6.23,6.23,0,0,0-1.41-1.07,12.38,12.38,0,0,0-1.74-.79c-.6-.23-1.13-.41-1.57-.56a35.37,35.37,0,0,1-5.14-2.21,15.88,15.88,0,0,1-3.68-2.64,9.58,9.58,0,0,1-2.94-7.12,9,9,0,0,1,3.54-7.32,12.46,12.46,0,0,1,4.11-2,18.59,18.59,0,0,1,5.36-.72,18.17,18.17,0,0,1,4.28.5,16.47,16.47,0,0,1,4,1.61c.55.32,1.08.66,1.58,1a15.83,15.83,0,0,1,1.31,1,6.82,6.82,0,0,1,.89.93,1.35,1.35,0,0,1,.33.76,1.11,1.11,0,0,1-.16.59,3.46,3.46,0,0,1-.47.61l-3.75,4a1.21,1.21,0,0,1-.84.42,1,1,0,0,1-.62-.2,6.89,6.89,0,0,1-.63-.49l-.22-.19c-.32-.28-.69-.57-1.09-.86A11,11,0,0,0,90,39a8.77,8.77,0,0,0-1.45-.58A5.05,5.05,0,0,0,87,38.16a8.1,8.1,0,0,0-1.52.14,4.19,4.19,0,0,0-1.25.43,2.29,2.29,0,0,0-.86.77A2.08,2.08,0,0,0,83,40.66a2,2,0,0,0,.35,1.19,3.25,3.25,0,0,0,1,.93,8.73,8.73,0,0,0,1.7.81c.68.25,1.47.53,2.36.82q2.59.86,4.79,1.8a16.12,16.12,0,0,1,3.79,2.23,9.26,9.26,0,0,1,2.49,3.08,9.66,9.66,0,0,1,.89,4.33,10.78,10.78,0,0,1-1.1,4.89,11.32,11.32,0,0,1-3,3.74,14.23,14.23,0,0,1-4.52,2.39,18,18,0,0,1-5.59.84,15.85,15.85,0,0,1-5.53-1A20.92,20.92,0,0,1,75.6,64a12.29,12.29,0,0,1-1.66-1.4c-.45-.46-.8-.83-1.06-1.11l-.08-.07a.1.1,0,0,0,0-.06l0,0,0-.06a.1.1,0,0,1,0,0,1.7,1.7,0,0,1-.57-1,1.37,1.37,0,0,1,.57-.93l4.24-4.05a1.6,1.6,0,0,1,.83-.36.94.94,0,0,1,.46.14A4.21,4.21,0,0,1,78.73,55.49Z"/><path class="cls-1" d="M131.36,63.52a16.44,16.44,0,0,1-4.85,3.1,14.87,14.87,0,0,1-5.71,1.12,16.7,16.7,0,0,1-11.59-4.62A16.36,16.36,0,0,1,105.63,58a15.43,15.43,0,0,1-1.32-6.4,16.49,16.49,0,0,1,.53-4.17,16.71,16.71,0,0,1,1.49-3.79,16.24,16.24,0,0,1,2.35-3.24,15,15,0,0,1,3.1-2.54,15.43,15.43,0,0,1,3.73-1.64,15.06,15.06,0,0,1,4.23-.59,14.43,14.43,0,0,1,4,.54,15.74,15.74,0,0,1,9.06,6.87,14.71,14.71,0,0,1,1.56,3.48,13.15,13.15,0,0,1,.55,3.81c0,.85,0,1.54,0,2.08a2.32,2.32,0,0,1-.38,1.29,1.78,1.78,0,0,1-1.13.66,11.5,11.5,0,0,1-2.34.18H113.33a5.93,5.93,0,0,0,2.72,4.3,6.74,6.74,0,0,0,2.08.9,8.4,8.4,0,0,0,3.89.08,11.93,11.93,0,0,0,1.8-.49,10.18,10.18,0,0,0,1.6-.71,5.35,5.35,0,0,0,1.16-.84,6.45,6.45,0,0,1,.67-.48,1.17,1.17,0,0,1,.6-.16,1.13,1.13,0,0,1,.65.22,5.36,5.36,0,0,1,.75.64l2.6,2.94a1.61,1.61,0,0,1,.34.57,1.93,1.93,0,0,1,.07.53,1.37,1.37,0,0,1-.27.85A3.37,3.37,0,0,1,131.36,63.52ZM119.57,43.11a4.79,4.79,0,0,0-1.85.38,7.41,7.41,0,0,0-1.67,1A8.07,8.07,0,0,0,114.64,46a8.22,8.22,0,0,0-1,1.64h12.52A13,13,0,0,0,125,45.83a7.38,7.38,0,0,0-1.37-1.42,5.64,5.64,0,0,0-1.76-.95A7,7,0,0,0,119.57,43.11Z"/><path class="cls-1" d="M141.87,31.28a1.34,1.34,0,0,1,.5-1.14,5.71,5.71,0,0,1,1.43-.72l5.56-1.94.24,0h.21A1.29,1.29,0,0,1,151,28a2.84,2.84,0,0,1,.3,1.39l0,7.72h4.09a1.8,1.8,0,0,1,1.28.46,1.87,1.87,0,0,1,.49,1.4v4.73a2,2,0,0,1-.49,1.5,1.77,1.77,0,0,1-1.28.48H151.3l0,19.7a1.82,1.82,0,0,1-.53,1.41,2.18,2.18,0,0,1-1.5.48h-5.54a1.67,1.67,0,0,1-1.88-1.89l0-19.7h-1.79c-1.25,0-1.88-.66-1.88-2V39a1.65,1.65,0,0,1,1.88-1.86h1.79Z"/><path class="cls-1" d="M187.41,66.73a7.9,7.9,0,0,1-.48-.91c-.13-.31-.27-.62-.4-.95L174,32a.78.78,0,0,0,0-.22.43.43,0,0,1,0-.19c0-.46.3-.69.91-.69h7.88a1.28,1.28,0,0,1,1.28.93l7.47,22.3q1-2.79,1.92-5.58c.62-1.85,1.22-3.71,1.82-5.57s1.2-3.72,1.81-5.57,1.25-3.71,1.92-5.58a1.32,1.32,0,0,1,1.35-.93H208a1.17,1.17,0,0,1,.79.21.69.69,0,0,1,.24.55.82.82,0,0,1,0,.27V32L196.33,64.87c-.08.23-.18.48-.29.76a5.58,5.58,0,0,1-.4.77,2.14,2.14,0,0,1-.51.6,1,1,0,0,1-.66.25h-6.05A1,1,0,0,1,187.41,66.73Z"/><path class="cls-1" d="M235,63.52a16.31,16.31,0,0,1-4.85,3.1,14.87,14.87,0,0,1-5.71,1.12A16.39,16.39,0,0,1,209.32,58a15.28,15.28,0,0,1-1.33-6.4,16.49,16.49,0,0,1,.53-4.17A16.71,16.71,0,0,1,210,43.65a15.9,15.9,0,0,1,2.36-3.24,14.54,14.54,0,0,1,3.1-2.54,15.12,15.12,0,0,1,8-2.23,14.41,14.41,0,0,1,3.94.54A15.44,15.44,0,0,1,231,37.7,15.9,15.9,0,0,1,234,40.05a15.65,15.65,0,0,1,2.4,3A14.29,14.29,0,0,1,238,46.53a13.15,13.15,0,0,1,.55,3.81c0,.85,0,1.54,0,2.08a2.4,2.4,0,0,1-.38,1.29,1.84,1.84,0,0,1-1.14.66,11.37,11.37,0,0,1-2.34.18H217a5.93,5.93,0,0,0,2.72,4.3,6.84,6.84,0,0,0,2.08.9,8.44,8.44,0,0,0,3.9.08,11.93,11.93,0,0,0,1.8-.49,9.67,9.67,0,0,0,1.59-.71,5.35,5.35,0,0,0,1.16-.84,5.54,5.54,0,0,1,.68-.48,1.12,1.12,0,0,1,.6-.16,1.15,1.15,0,0,1,.65.22,4.83,4.83,0,0,1,.74.64l2.6,2.94a1.61,1.61,0,0,1,.34.57,2,2,0,0,1,.08.53,1.37,1.37,0,0,1-.27.85A3.14,3.14,0,0,1,235,63.52ZM223.26,43.11a4.71,4.71,0,0,0-1.85.38,7.26,7.26,0,0,0-1.68,1A8.81,8.81,0,0,0,218.32,46a8.22,8.22,0,0,0-1,1.64h12.52a14,14,0,0,0-1.11-1.77,7.69,7.69,0,0,0-1.37-1.42,5.8,5.8,0,0,0-1.77-.95A7,7,0,0,0,223.26,43.11Z"/><path class="cls-1" d="M243.66,28.76a2.14,2.14,0,0,1,.4-1.33,1.55,1.55,0,0,1,1.34-.54h6a1.16,1.16,0,0,1,.51.14,1.79,1.79,0,0,1,.5.38,1.9,1.9,0,0,1,.39.59,1.7,1.7,0,0,1,.16.76v36.6a1.81,1.81,0,0,1-.52,1.41,2,2,0,0,1-1.36.48H245.4a1.64,1.64,0,0,1-1.34-.48,2.14,2.14,0,0,1-.4-1.41Z"/><path class="cls-1" d="M257.9,51.71a16.1,16.1,0,0,1,2.19-8.19,15.74,15.74,0,0,1,2.5-3.24,15.12,15.12,0,0,1,3.25-2.48,16.2,16.2,0,0,1,3.85-1.6,16.69,16.69,0,0,1,4.33-.56,16,16,0,0,1,11.35,4.64,16.18,16.18,0,0,1,3.43,5.1,15.66,15.66,0,0,1,1.27,6.33,16.28,16.28,0,0,1-.58,4.33,16.08,16.08,0,0,1-1.62,3.86,15.41,15.41,0,0,1-2.5,3.24,15.74,15.74,0,0,1-3.24,2.5,15.91,15.91,0,0,1-3.84,1.61,16.18,16.18,0,0,1-4.27.56,16.69,16.69,0,0,1-4.33-.56,15.82,15.82,0,0,1-3.85-1.61,15.54,15.54,0,0,1-3.25-2.5,15.74,15.74,0,0,1-2.5-3.24A16.93,16.93,0,0,1,258.47,56,16.27,16.27,0,0,1,257.9,51.71Zm8.94,0a9.08,9.08,0,0,0,.5,3,7.46,7.46,0,0,0,1.42,2.44A6.71,6.71,0,0,0,271,58.8a6.9,6.9,0,0,0,3,.61,6.53,6.53,0,0,0,2.87-.61A6.32,6.32,0,0,0,279,57.18a7.21,7.21,0,0,0,1.38-2.44,9.87,9.87,0,0,0,0-6,7.8,7.8,0,0,0-1.38-2.5,6.53,6.53,0,0,0-2.18-1.7A6.4,6.4,0,0,0,274,43.9a6.76,6.76,0,0,0-3,.62,6.93,6.93,0,0,0-2.23,1.7,8.09,8.09,0,0,0-1.42,2.5A9.06,9.06,0,0,0,266.84,51.71Z"/><path class="cls-1" d="M314.86,57.67a1.6,1.6,0,0,1,.65-.31,2.58,2.58,0,0,1,.48-.06,1.76,1.76,0,0,1,.76.17,2.1,2.1,0,0,1,.71.74l2.74,4.13a3.77,3.77,0,0,1,.23.45.89.89,0,0,1,.11.39,1.24,1.24,0,0,1-.35.92,5.65,5.65,0,0,1-.77.62A18.42,18.42,0,0,1,315,67a14.89,14.89,0,0,1-5.06.85,16.14,16.14,0,0,1-4.25-.56,15.7,15.7,0,0,1-3.81-1.61,16,16,0,0,1-3.23-2.5,14.77,14.77,0,0,1-2.5-3.24A16.47,16.47,0,0,1,294.56,56a16.73,16.73,0,0,1,0-8.66,16,16,0,0,1,1.61-3.86,14.77,14.77,0,0,1,2.5-3.24,15.51,15.51,0,0,1,3.23-2.48A15.84,15.84,0,0,1,310,35.64a16.57,16.57,0,0,1,4.94.71,15.34,15.34,0,0,1,4.25,2.11l-.08-.08a3,3,0,0,1,.86.75,1.76,1.76,0,0,1,.32,1.07,1.73,1.73,0,0,1-.29.9l-2.18,3.7a2,2,0,0,1-1.67,1.2,1.52,1.52,0,0,1-.54-.11,2.94,2.94,0,0,1-.71-.38,11.18,11.18,0,0,0-2.32-1.16,7.61,7.61,0,0,0-2.63-.45,6.39,6.39,0,0,0-2.84.62,6.78,6.78,0,0,0-2.22,1.7,8.11,8.11,0,0,0-1.43,2.5,9,9,0,0,0,0,6,7.48,7.48,0,0,0,1.43,2.44,6.8,6.8,0,0,0,5.06,2.23,7.1,7.1,0,0,0,2.62-.49A12.46,12.46,0,0,0,314.86,57.67Z"/><path class="cls-1" d="M325.17,25.64a2,2,0,0,1,.44-1.45,1.92,1.92,0,0,1,1.38-.43h5.68a2.09,2.09,0,0,1,1.38.43,1.74,1.74,0,0,1,.53,1.45v4.78a1.74,1.74,0,0,1-.13.64,2.75,2.75,0,0,1-.38.66,2.33,2.33,0,0,1-.6.53,1.57,1.57,0,0,1-.8.21H327c-1.21,0-1.82-.68-1.82-2Zm0,12.4a2.16,2.16,0,0,1,.44-1.35,1.67,1.67,0,0,1,1.38-.56h5.61a1.69,1.69,0,0,1,.63.13,2.15,2.15,0,0,1,.64.4,2.42,2.42,0,0,1,.5.6,1.47,1.47,0,0,1,.21.78V65.36a1.84,1.84,0,0,1-.51,1.41,2.1,2.1,0,0,1-1.47.48H327c-1.21,0-1.82-.63-1.82-1.89Z"/><path class="cls-1" d="M342.35,31.28a1.32,1.32,0,0,1,.5-1.14,5.71,5.71,0,0,1,1.43-.72l5.56-1.94.24,0h.21a1.29,1.29,0,0,1,1.21.52,2.84,2.84,0,0,1,.3,1.39l0,7.72h4.09a1.76,1.76,0,0,1,1.27.46,1.84,1.84,0,0,1,.5,1.4v4.73a2,2,0,0,1-.5,1.5,1.73,1.73,0,0,1-1.27.48h-4.09l0,19.7a1.79,1.79,0,0,1-.54,1.41,2.14,2.14,0,0,1-1.49.48h-5.54a1.67,1.67,0,0,1-1.88-1.89l0-19.7h-1.79c-1.25,0-1.88-.66-1.88-2V39a1.65,1.65,0,0,1,1.88-1.86h1.79Z"/><path class="cls-1" d="M359.62,38.48a1.9,1.9,0,0,1,0-1.68q.38-.69,1.68-.69h6a1.36,1.36,0,0,1,1,.38,2.32,2.32,0,0,1,.59.94l6.93,19.72,6.79-19.72a1.92,1.92,0,0,1,.69-1,2.08,2.08,0,0,1,1.15-.27h6.29a2.63,2.63,0,0,1,1.08.18,1.11,1.11,0,0,1,.55.49,1.13,1.13,0,0,1,.11.69,2.78,2.78,0,0,1-.19.74l-2,5c-.73,1.82-1.5,3.71-2.29,5.68s-1.59,4-2.41,6-1.61,4-2.39,6-1.52,3.85-2.24,5.65-1.38,3.46-2,5-1.12,2.83-1.56,4-.78,2-1,2.64l.07-.12a2.14,2.14,0,0,1-.61,1.07,1.6,1.6,0,0,1-1.08.4h-5.66a2,2,0,0,1-1.51-.43,1.78,1.78,0,0,1-.4-1.26,1.24,1.24,0,0,1,.08-.49.92.92,0,0,1,.14-.22l3.85-10Z"/><g class="cls-2"><line class="cls-3" x1="18.6" y1="88.2" x2="445.97" y2="88.2"/><polygon class="cls-4" points="22.77 94.3 0 88.2 22.77 82.1 22.77 94.3"/><polygon class="cls-4" points="441.81 94.3 464.58 88.2 441.81 82.1 441.81 94.3"/></g><g class="cls-2"><line class="cls-3" x1="18.6" y1="6.1" x2="445.97" y2="6.1"/><polygon class="cls-4" points="22.77 12.2 0 6.1 22.77 0 22.77 12.2"/><polygon class="cls-4" points="441.81 12.2 464.58 6.1 441.81 0 441.81 12.2"/></g></g></g></svg>