<svg xmlns="http://www.w3.org/2000/svg" viewBox="0 0 457.23 85.96"><defs><style>.cls-1{fill:#fff;}.cls-2{fill:none;stroke:#fbf3c9;stroke-miterlimit:10;stroke-width:3px;}.cls-3{fill:#fbf3c9;}.cls-4{opacity:0;}</style></defs><g id="Layer_2" data-name="Layer 2"><g id="Layer_1-2" data-name="Layer 1"><path class="cls-1" d="M71.67,63.11a8.82,8.82,0,0,1-.48-.91c-.14-.31-.27-.63-.4-1L58.22,28.34a.54.54,0,0,0,0-.22.65.65,0,0,1,0-.19c0-.46.31-.69.91-.69h7.89a1.27,1.27,0,0,1,1.27.93l7.48,22.3c.67-1.87,1.31-3.72,1.92-5.58s1.22-3.71,1.81-5.57,1.2-3.72,1.82-5.58,1.25-3.71,1.92-5.57a1.32,1.32,0,0,1,1.35-.93h7.71a1.2,1.2,0,0,1,.8.21.68.68,0,0,1,.23.55,1.47,1.47,0,0,1,0,.27v.07L80.59,61.25c-.09.22-.18.48-.3.75a4.73,4.73,0,0,1-.39.78,3,3,0,0,1-.51.6,1,1,0,0,1-.66.24H72.67A1,1,0,0,1,71.67,63.11Z"/><path class="cls-1" d="M119.3,59.9a16.64,16.64,0,0,1-4.85,3.1,14.86,14.86,0,0,1-5.71,1.11,16.7,16.7,0,0,1-6.35-1.22,16.5,16.5,0,0,1-5.24-3.4,16.2,16.2,0,0,1-3.58-5.1A15.47,15.47,0,0,1,92.25,48a16.34,16.34,0,0,1,2-8,15.92,15.92,0,0,1,2.35-3.25,14.74,14.74,0,0,1,3.1-2.53,15,15,0,0,1,3.72-1.64,14.78,14.78,0,0,1,4.24-.59,14.48,14.48,0,0,1,3.95.54,15.4,15.4,0,0,1,6.66,3.87,15.65,15.65,0,0,1,2.4,3,14.36,14.36,0,0,1,1.56,3.48,13.15,13.15,0,0,1,.55,3.81c0,.85,0,1.54,0,2.08a2.32,2.32,0,0,1-.38,1.29,1.93,1.93,0,0,1-1.14.66,11.37,11.37,0,0,1-2.34.18H101.26a6.12,6.12,0,0,0,1,2.62A6.23,6.23,0,0,0,104,55.23a6.63,6.63,0,0,0,2.09.89,8.74,8.74,0,0,0,2.08.27,9.49,9.49,0,0,0,1.81-.18,13.24,13.24,0,0,0,1.8-.49,9.67,9.67,0,0,0,1.59-.71,4.91,4.91,0,0,0,1.17-.85,4.43,4.43,0,0,1,.67-.47,1.17,1.17,0,0,1,.6-.16,1.13,1.13,0,0,1,.65.22,5.36,5.36,0,0,1,.75.64l2.6,2.94a1.61,1.61,0,0,1,.34.57,1.88,1.88,0,0,1,.07.53,1.34,1.34,0,0,1-.27.84A3.13,3.13,0,0,1,119.3,59.9ZM107.51,39.49a4.79,4.79,0,0,0-1.85.38,7,7,0,0,0-1.68,1,8.3,8.3,0,0,0-1.4,1.44,8.83,8.83,0,0,0-1,1.64h12.52A16,16,0,0,0,113,42.21a7.38,7.38,0,0,0-1.37-1.42,5.87,5.87,0,0,0-1.76-1A7.09,7.09,0,0,0,107.51,39.49Z"/><path class="cls-1" d="M127.92,34.32a1.87,1.87,0,0,1,.18-.8,1.91,1.91,0,0,1,.46-.6,2.41,2.41,0,0,1,1.32-.41h3.7a1.29,1.29,0,0,1,.73.17,1.6,1.6,0,0,1,.46.44,3.18,3.18,0,0,1,.32.61,5.41,5.41,0,0,0,.33.69,4.53,4.53,0,0,1,.19.48c.1.25.21.53.32.83s.23.59.33.86l.21.52c.49-.54,1-1.1,1.41-1.7a15.4,15.4,0,0,1,1.43-1.65A6.79,6.79,0,0,1,141,32.51a4.65,4.65,0,0,1,2.21-.49,12.89,12.89,0,0,1,2.36.19,10.23,10.23,0,0,1,2,.58,10.6,10.6,0,0,1,1.85,1c.62.39,1.28.85,2,1.37,1.13.6,1.34,1.5.64,2.69l-2.23,3.8a2.06,2.06,0,0,1-1.2.91,2.36,2.36,0,0,1-1.55-.22,7.47,7.47,0,0,0-2.14-1.53,5.83,5.83,0,0,0-2.49-.51,4.76,4.76,0,0,0-1.67.27,4.68,4.68,0,0,0-1.32.76,7.37,7.37,0,0,0-1.1,1.18c-.34.46-.68,1-1,1.52V61.74a2,2,0,0,1-.45,1.4,2,2,0,0,1-1.51.48h-5.51a1.68,1.68,0,0,1-1.91-1.88Z"/><path class="cls-1" d="M158,27.66a1.32,1.32,0,0,1,.5-1.14,5.38,5.38,0,0,1,1.43-.73l5.56-1.93a1,1,0,0,1,.24,0h.2a1.3,1.3,0,0,1,1.22.53,2.78,2.78,0,0,1,.3,1.39l0,7.71h4.09a1.76,1.76,0,0,1,1.27.47,1.81,1.81,0,0,1,.49,1.39v4.73a2,2,0,0,1-.49,1.51,1.73,1.73,0,0,1-1.27.48h-4.09l0,19.7a1.75,1.75,0,0,1-.54,1.4,2.15,2.15,0,0,1-1.49.48h-5.54A1.66,1.66,0,0,1,158,61.74L158,42h-1.79c-1.26,0-1.88-.66-1.88-2V35.32a1.65,1.65,0,0,1,1.88-1.86H158Z"/><path class="cls-1" d="M177.14,22a2,2,0,0,1,.44-1.46,1.92,1.92,0,0,1,1.37-.43h5.69a2.15,2.15,0,0,1,1.38.43,1.79,1.79,0,0,1,.53,1.46V26.8a1.81,1.81,0,0,1-.14.64,2.8,2.8,0,0,1-.38.66,1.88,1.88,0,0,1-.6.52,1.51,1.51,0,0,1-.79.21H179c-1.21,0-1.81-.68-1.81-2Zm0,12.4a2.16,2.16,0,0,1,.44-1.35,1.64,1.64,0,0,1,1.37-.56h5.61a1.74,1.74,0,0,1,.64.13,2.25,2.25,0,0,1,.64.39,3.19,3.19,0,0,1,.5.6,1.48,1.48,0,0,1,.21.79V61.74a1.78,1.78,0,0,1-.52,1.4,2.07,2.07,0,0,1-1.47.48H179c-1.21,0-1.81-.63-1.81-1.88Z"/><path class="cls-1" d="M212.35,54a1.67,1.67,0,0,1,.64-.3,3,3,0,0,1,.48-.07,1.61,1.61,0,0,1,.76.18,2,2,0,0,1,.71.73l2.75,4.14a3.61,3.61,0,0,1,.23.44,1.17,1.17,0,0,1,.11.39,1.22,1.22,0,0,1-.36.92,4.24,4.24,0,0,1-.77.63,18.23,18.23,0,0,1-4.4,2.24,15.08,15.08,0,0,1-5.05.85,15.86,15.86,0,0,1-4.26-.57,15.44,15.44,0,0,1-3.8-1.6,16.68,16.68,0,0,1-3.24-2.5,15.46,15.46,0,0,1-2.5-3.25,16.7,16.7,0,0,1-1.6-3.86,15.81,15.81,0,0,1-.58-4.32,16,16,0,0,1,.58-4.34,16.52,16.52,0,0,1,1.6-3.86,15.61,15.61,0,0,1,2.5-3.23,16.44,16.44,0,0,1,16.23-3.93,15.18,15.18,0,0,1,4.25,2.1l-.07-.07a2.87,2.87,0,0,1,.86.75,1.73,1.73,0,0,1,.31,1.06,1.65,1.65,0,0,1-.29.91l-2.18,3.7a2,2,0,0,1-1.66,1.2,1.78,1.78,0,0,1-.54-.11,2.76,2.76,0,0,1-.71-.38A11.43,11.43,0,0,0,210,40.73a7.39,7.39,0,0,0-2.63-.46,6.47,6.47,0,0,0-2.85.63,6.58,6.58,0,0,0-2.21,1.7,8,8,0,0,0-1.44,2.5,9.14,9.14,0,0,0,0,6,7.46,7.46,0,0,0,1.44,2.43,6.66,6.66,0,0,0,2.21,1.63,6.74,6.74,0,0,0,2.85.6,6.94,6.94,0,0,0,2.62-.49A11.66,11.66,0,0,0,212.35,54Z"/><path class="cls-1" d="M253.68,61.81a2.18,2.18,0,0,1-.15.8,1.25,1.25,0,0,1-.49.6,1.21,1.21,0,0,1-.64.34,3.1,3.1,0,0,1-.63.07h-4.83a2.16,2.16,0,0,1-.83-.13,1.28,1.28,0,0,1-.52-.38,2.45,2.45,0,0,1-.33-.6l-.28-.77-.71-1.84c-.44.44-.92.91-1.45,1.41a12.37,12.37,0,0,1-1.72,1.38,10.22,10.22,0,0,1-2,1.07,6.58,6.58,0,0,1-2.35.43,15.9,15.9,0,0,1-4.28-.57A15.74,15.74,0,0,1,228.6,62a16,16,0,0,1-3.22-2.5,16.49,16.49,0,0,1-2.49-3.25,15.87,15.87,0,0,1-1.6-3.86,16.2,16.2,0,0,1-.57-4.32A16,16,0,0,1,222,41.76a16.18,16.18,0,0,1,3.41-5.1A15.79,15.79,0,0,1,236.7,32a8.33,8.33,0,0,1,2.79.45,9.58,9.58,0,0,1,2.32,1.19,11.46,11.46,0,0,1,1.88,1.66,18.11,18.11,0,0,1,1.51,1.89l1-3c.16-.41.29-.74.4-1a1.87,1.87,0,0,1,.34-.56.93.93,0,0,1,.46-.24,3.56,3.56,0,0,1,.76-.07h3.65a3.19,3.19,0,0,1,.63.08,1.21,1.21,0,0,1,.64.34,1.56,1.56,0,0,1,.49.61,2,2,0,0,1,.15.79ZM229.54,48.09a8.84,8.84,0,0,0,.51,3,7.1,7.1,0,0,0,1.43,2.43,6.78,6.78,0,0,0,2.24,1.63,6.9,6.9,0,0,0,2.9.6,7.73,7.73,0,0,0,3.06-.6,7.89,7.89,0,0,0,2.45-1.63,7.39,7.39,0,0,0,1.62-2.43,8,8,0,0,0,0-6,7.92,7.92,0,0,0-1.62-2.5,7.76,7.76,0,0,0-2.45-1.7,7.41,7.41,0,0,0-3.06-.63,6.62,6.62,0,0,0-2.9.63,6.7,6.7,0,0,0-2.24,1.7,7.62,7.62,0,0,0-1.43,2.5A8.78,8.78,0,0,0,229.54,48.09Z"/><path class="cls-1" d="M259.56,25.13a2.19,2.19,0,0,1,.39-1.32,1.55,1.55,0,0,1,1.35-.54h6a1.16,1.16,0,0,1,.51.14,1.78,1.78,0,0,1,.51.38,2.26,2.26,0,0,1,.39.58,1.91,1.91,0,0,1,.16.76V61.74a1.78,1.78,0,0,1-.53,1.4,1.93,1.93,0,0,1-1.36.48H261.3a1.65,1.65,0,0,1-1.35-.48,2.14,2.14,0,0,1-.39-1.4Z"/><path class="cls-1" d="M301.52,28.2a.74.74,0,0,1,.16-.32,1.68,1.68,0,0,1,.33-.32,1.44,1.44,0,0,1,.42-.23,1.14,1.14,0,0,1,.42-.09h6.27a1.05,1.05,0,0,1,.71.26,3,3,0,0,1,.44.45l.61,1.4,12.87,33.17a.73.73,0,0,1-.08.8,1.21,1.21,0,0,1-.93.3h-7a1.51,1.51,0,0,1-.87-.21,1.37,1.37,0,0,1-.48-.69l-.95-2.49-.93-2.49h-13c-.31.84-.63,1.66-1,2.49s-.63,1.65-.94,2.49a1.22,1.22,0,0,1-1.25.9H289.1a1.22,1.22,0,0,1-.77-.24.59.59,0,0,1-.11-.74ZM306,38.68c-.31.83-.62,1.73-.94,2.7s-.63,1.93-.94,2.91-.63,2-1,2.9-.63,1.85-.94,2.69h7.52Z"/><path class="cls-1" d="M325.73,62.69a.9.9,0,0,1,.12-.67l.34-.55L336,47.72l-9.24-13.13a4,4,0,0,1-.42-.69,1.21,1.21,0,0,1-.13-.67.74.74,0,0,1,.32-.52,1.68,1.68,0,0,1,.94-.2h7.69a1,1,0,0,1,.73.35c.2.24.43.55.69.92l4.68,7.57q.46-.66,1.08-1.68c.41-.67.83-1.38,1.26-2.1s.85-1.44,1.25-2.12.75-1.27,1-1.74a3.85,3.85,0,0,1,.78-.92,1.27,1.27,0,0,1,.84-.28h7.77a1.3,1.3,0,0,1,.55.12,1,1,0,0,1,.4.34.83.83,0,0,1,.13.52,1.22,1.22,0,0,1-.32.63l-9.58,13.53L355.94,61a5.41,5.41,0,0,1,.5.88,1.76,1.76,0,0,1,.18.86.86.86,0,0,1-.35.65,1.87,1.87,0,0,1-1.12.25h-7.93a1.76,1.76,0,0,1-1.65-1.27l-4.36-7.84-4.41,7.94a2.44,2.44,0,0,1-.68.85,1.31,1.31,0,0,1-.81.32h-8.53a1.13,1.13,0,0,1-.59-.15,1.06,1.06,0,0,1-.41-.53Z"/><path class="cls-1" d="M361,22a2,2,0,0,1,.44-1.46,1.94,1.94,0,0,1,1.37-.43h5.69a2.15,2.15,0,0,1,1.38.43,1.79,1.79,0,0,1,.53,1.46V26.8a1.81,1.81,0,0,1-.14.64,2.8,2.8,0,0,1-.38.66,1.88,1.88,0,0,1-.6.52,1.51,1.51,0,0,1-.79.21h-5.69c-1.21,0-1.81-.68-1.81-2Zm0,12.4a2.16,2.16,0,0,1,.44-1.35,1.65,1.65,0,0,1,1.37-.56h5.61a1.74,1.74,0,0,1,.64.13,2.25,2.25,0,0,1,.64.39,3.19,3.19,0,0,1,.5.6,1.48,1.48,0,0,1,.21.79V61.74a1.78,1.78,0,0,1-.52,1.4,2.07,2.07,0,0,1-1.47.48h-5.61c-1.21,0-1.81-.63-1.81-1.88Z"/><path class="cls-1" d="M380.9,53.94a6.65,6.65,0,0,0,1.44,1.12,9.63,9.63,0,0,0,1.48.73,8.17,8.17,0,0,0,1.25.41,4.13,4.13,0,0,0,.73.12c.31,0,.71,0,1.19,0a5.85,5.85,0,0,0,1.39-.22,2.84,2.84,0,0,0,1.14-.6,1.48,1.48,0,0,0,.47-1.17,1.93,1.93,0,0,0-.27-1.09,2.2,2.2,0,0,0-.78-.69,6.35,6.35,0,0,0-1.26-.5L386,51.49a20.21,20.21,0,0,1-4.85-1.88,11.13,11.13,0,0,1-3-2.46,8.07,8.07,0,0,1-1.55-2.93,12,12,0,0,1-.44-3.31,8.33,8.33,0,0,1,.8-3.7,8.13,8.13,0,0,1,2.31-2.85,10.68,10.68,0,0,1,3.57-1.84,16.62,16.62,0,0,1,7.53-.39,11.47,11.47,0,0,1,2.57.81,12.33,12.33,0,0,1,2.39,1.42,19.58,19.58,0,0,1,2.31,2.07,1.51,1.51,0,0,1,.43.92,1.26,1.26,0,0,1-.55.91c-.64.53-1.25,1-1.83,1.55s-1.18,1.07-1.8,1.69a1.35,1.35,0,0,1-.58.3,1.1,1.1,0,0,1-.57,0,1.7,1.7,0,0,1-.51-.24,2.19,2.19,0,0,1-.44-.42,4.39,4.39,0,0,0-2-1.29,7.22,7.22,0,0,0-2.06-.33,3.73,3.73,0,0,0-1.91.42,1.26,1.26,0,0,0-.66,1.27,1.38,1.38,0,0,0,.47,1,3.45,3.45,0,0,0,1.06.57,8.79,8.79,0,0,0,1.32.36c.47.09.89.19,1.29.3a38.83,38.83,0,0,1,4,1.55,12,12,0,0,1,3.18,2,8.49,8.49,0,0,1,2.1,2.91,10.09,10.09,0,0,1,.75,4.11,9.53,9.53,0,0,1-1,4.34,9.39,9.39,0,0,1-2.66,3.21,12.13,12.13,0,0,1-4,2,17.32,17.32,0,0,1-5,.69,18.27,18.27,0,0,1-3.09-.27,14.66,14.66,0,0,1-3-.87,13.6,13.6,0,0,1-2.79-1.54,11.08,11.08,0,0,1-2.35-2.29,2.53,2.53,0,0,1-.41-.73,2,2,0,0,1-.12-.74,1.88,1.88,0,0,1,.15-.68,1.26,1.26,0,0,1,.43-.52l3.16-3.17a1.12,1.12,0,0,1,1-.34A3.57,3.57,0,0,1,380.9,53.94Z"/><line class="cls-2" x1="38.68" y1="18.6" x2="38.68" y2="67.35"/><polygon class="cls-3" points="32.58 22.77 38.68 0 44.78 22.77 32.58 22.77"/><polygon class="cls-3" points="32.58 63.19 38.68 85.96 44.78 63.19 32.58 63.19"/><g class="cls-4"><line class="cls-2" x1="6.1" y1="18.6" x2="6.1" y2="67.35"/><polygon class="cls-3" points="0 22.77 6.1 0 12.2 22.77 0 22.77"/><polygon class="cls-3" points="0 63.19 6.1 85.96 12.2 63.19 0 63.19"/></g><line class="cls-2" x1="417.25" y1="18.6" x2="417.25" y2="67.35"/><polygon class="cls-3" points="411.15 22.77 417.25 0 423.35 22.77 411.15 22.77"/><polygon class="cls-3" points="411.15 63.19 417.25 85.96 423.35 63.19 411.15 63.19"/><g class="cls-4"><line class="cls-2" x1="451.13" y1="18.6" x2="451.13" y2="67.35"/><polygon class="cls-3" points="445.03 22.77 451.13 0 457.23 22.77 445.03 22.77"/><polygon class="cls-3" points="445.03 63.19 451.13 85.96 457.23 63.19 445.03 63.19"/></g></g></g></svg>