<svg xmlns="http://www.w3.org/2000/svg" viewBox="0 0 1600 689.1"><defs><style>.cls-1{fill:#2d3334;}.cls-2{fill:#faec87;}.cls-3,.cls-6{fill:#fff;}.cls-4{fill:#fcf3ca;}.cls-5,.cls-7{fill:none;}.cls-5,.cls-6{stroke:#faec87;}.cls-5,.cls-6,.cls-7{stroke-miterlimit:10;}.cls-7{stroke:#fcf3ca;}.cls-8{fill:#44bdd7;}.cls-9{fill:#f3785b;}.cls-10{fill:#2c233f;}</style></defs><g id="Layer_2" data-name="Layer 2"><g id="Layer_1-2" data-name="Layer 1"><g id="Layer_2-2" data-name="Layer 2"><g id="Layer_1-2-2" data-name="Layer 1-2"><path class="cls-1" d="M973,212.23c0,42.75-40.68,70.23-96,70.23-29.23,0-51-6.49-67.16-16.41-26.07,10.68-55.7,16.41-85.72,16.41-84.13,0-118.5-50-118.5-87.79,0-40.84,24.49-75.58,67.55-90.85v-3c-14.61-9.54-22.91-24-22.91-43.52,0-38.21,32.36-57.3,79.8-57.3,47.8,0,80.19,19.09,80.19,57.25,0,26.34-15.41,43.52-40.29,51.53h.79v3.44c37.53,16.41,55.7,49.62,69.92,79.39,7.11-12.61,11.45-28.24,11.45-46.61,0-25.95-20.14-34.72-35.16-38.54l4.35-17.18H928.37l4.74,17.18c-15,3.82-35.16,14.88-35.16,39.69,0,35.12-13.83,63.75-36,85.89,7.9,10.68,17,17.55,29.23,17.55,12.64,0,24.1-7.25,24.1-20.23,0-12.21-13-19.85-13-35.88,0-14.5,11.86-25.57,30.42-25.57,27.26,0,40.29,20.23,40.29,44.28m-229.11,29a133.33,133.33,0,0,0,36.73-5c-23.74-36.19-28-84.27-53-107.19-20.94,15.28-39.07,36.66-39.07,62.23,0,19.47,15.8,50,55.31,50M705.56,59.54c0,20.62,10.27,30.92,24.5,30.92,14.61,0,24.49-10.3,24.49-30.92s-9.88-31.29-24.49-31.29c-14.23,0-24.5,10.68-24.5,31.29"/><polygon class="cls-2" points="777.66 42.03 773.43 49.85 769.12 42.07 761.3 37.83 769.09 33.53 773.32 25.7 777.63 33.49 785.45 37.73 777.66 42.03"/><polygon class="cls-2" points="865.02 229.35 870.61 200.3 874.63 229.61 903.68 235.21 874.37 239.22 868.77 268.28 864.76 238.97 835.71 233.37 865.02 229.35"/></g></g><g id="Layer_2-3" data-name="Layer 2"><g id="Layer_1-2-3" data-name="Layer 1-2"><path class="cls-1" d="M1600,574c-159-177.93-479.14-291.17-742.59-309.1C550.33,244,147.21,335.67,0,547.37V689.1H1600Z"/><circle class="cls-3" cx="1283.23" cy="484.76" r="2"/><circle class="cls-3" cx="406.21" cy="509.56" r="2.92"/><circle class="cls-4" cx="51.11" cy="587.66" r="2.43"/><polygon class="cls-5" points="167.58 621.49 195.97 626.17 167.57 630.84 162.88 659.23 158.22 630.84 129.83 626.13 158.22 621.48 162.92 593.09 167.58 621.49"/><circle class="cls-3" cx="249.79" cy="459.3" r="1.75"/><circle class="cls-2" cx="324.42" cy="624.19" r="3.93"/><polygon class="cls-4" points="1023.22 362.95 1004.55 359.74 1023.27 356.8 1026.5 338.13 1029.43 356.85 1048.1 360.07 1029.38 363 1026.15 381.68 1023.22 362.95"/><circle class="cls-3" cx="406.72" cy="350.38" r="2.92"/><circle class="cls-3" cx="651.32" cy="555.62" r="2.92"/><circle class="cls-3" cx="923.17" cy="413.51" r="2.92"/><circle class="cls-3" cx="514.37" cy="484.76" r="2"/><circle class="cls-6" cx="786.15" cy="516.71" r="2.92"/><circle class="cls-2" cx="906.62" cy="632.36" r="3.93"/><circle class="cls-4" cx="747.5" cy="313.41" r="1.46"/><circle class="cls-3" cx="700.51" cy="386.34" r="2.92"/><polygon class="cls-7" points="1405.11 453.49 1381.34 449.56 1405.12 445.65 1409.04 421.89 1412.94 445.67 1436.71 449.6 1412.94 453.5 1409.01 477.25 1405.11 453.49"/><circle class="cls-3" cx="1227.88" cy="593.97" r="2.92"/><circle class="cls-3" cx="1270.76" cy="383.42" r="1.75"/><circle class="cls-3" cx="1051.02" cy="656.83" r="2.92"/><circle class="cls-3" cx="1335.38" cy="648.01" r="2"/><circle class="cls-6" cx="1473.45" cy="662.67" r="2.92"/><circle class="cls-2" cx="1121.68" cy="449.57" r="3.93"/><polygon class="cls-2" points="515.8 378.3 536.47 381.87 515.75 385.12 512.17 405.79 508.93 385.06 488.26 381.49 508.98 378.25 512.56 357.56 515.8 378.3"/></g></g><g id="Layer_2-4" data-name="Layer 2"><g id="Layer_1-2-4" data-name="Layer 1-2"><polygon class="cls-8" points="779.95 148.25 794.95 160.51 660.12 271.18 561.99 347.94 646.95 256.81 768.92 132.32 779.95 148.25"/><path class="cls-9" d="M901.66,26.23,903.6,23c-22,3.84-41.57,15-57.64,30.44l-66.55,65.85A57.94,57.94,0,0,0,739,136.63L690.78,185l39.07-16.58-.11.09,25.57,1.34,1.22,1.26Z"/><path class="cls-9" d="M757,194l-17.52,40.13,48.86-47.71a58,58,0,0,0,17.71-40.52Z"/><path class="cls-10" d="M903.6,23c-4.06,22-15.37,41.42-31,57.33l-116.2,115-1.07-25.58Z"/><path class="cls-10" d="M835.6,99.73a6.93,6.93,0,1,1,.16-9.79h0a6.94,6.94,0,0,1-.17,9.79"/><path class="cls-10" d="M846.78,89a6.92,6.92,0,1,1,.18-9.79h0a6.93,6.93,0,0,1-.19,9.78"/><path class="cls-10" d="M858,78.16a6.93,6.93,0,1,1,.17-9.79h0a6.91,6.91,0,0,1-.16,9.77h0"/></g></g><g id="Layer_2-5" data-name="Layer 2"><g id="Layer_1-2-5" data-name="Layer 1-2"><path class="cls-1" d="M779.81,237.66h0a133,133,0,0,1-36.73,5c-39.51,0-55.31-30.53-55.31-50,0-25.57,18.17-46.95,39.11-62.22-4.38-31.22-54.52-25.23-54.52-25.23-43.06,15.27-67.55,50-67.55,90.85,0,37.79,34.37,87.79,118.51,87.79,30,0,59.65-5.73,85.72-16.42C825.26,231.24,779.81,237.66,779.81,237.66Z"/></g></g></g></g></svg>