<svg xmlns="http://www.w3.org/2000/svg" viewBox="0 0 212.84 70.95"><defs><style>.cls-1{fill:#41bdd7;}.cls-2{fill:#fff;}</style></defs><g id="Layer_2" data-name="Layer 2"><g id="Layer_1-2" data-name="Layer 1"><rect class="cls-1" width="212.84" height="70.95" rx="25"/><path class="cls-2" d="M26.38,28H37.8l0,3H30v3.91h7.17v3H30v6H26.38Z"/><path class="cls-2" d="M45.3,40a3.44,3.44,0,0,0,2.58,1,3.32,3.32,0,0,0,2.5-1,3.75,3.75,0,0,0,.93-2.7V28h3.58v9.33A7.31,7.31,0,0,1,54,40.94,5.79,5.79,0,0,1,51.6,43.3a7.91,7.91,0,0,1-3.74.83,8,8,0,0,1-3.77-.83,5.83,5.83,0,0,1-2.48-2.36,7.31,7.31,0,0,1-.86-3.62V28h3.59v9.33A3.69,3.69,0,0,0,45.3,40Z"/><path class="cls-2" d="M59.25,28h3.59V40.75h6.81v3.13H59.25Z"/><path class="cls-2" d="M72.92,28h3.59V40.75h6.81v3.13H72.92Z"/><path class="cls-2" d="M100.9,31.22a8,8,0,0,0-2.35-.44,2.87,2.87,0,0,0-1.48.34,1.11,1.11,0,0,0-.54,1,1.39,1.39,0,0,0,.78,1.28,11.54,11.54,0,0,0,2.42.92,20.58,20.58,0,0,1,2.69,1,4.72,4.72,0,0,1,1.81,1.43,3.94,3.94,0,0,1,.75,2.52,4.3,4.3,0,0,1-.81,2.62A5.07,5.07,0,0,1,102,43.52a8.49,8.49,0,0,1-3.2.57,11.08,11.08,0,0,1-3.8-.68,10.32,10.32,0,0,1-3.22-1.87l1.43-2.92a9.85,9.85,0,0,0,2.77,1.74A7.43,7.43,0,0,0,98.8,41a3.11,3.11,0,0,0,1.74-.41,1.43,1.43,0,0,0,.2-2.19,3.29,3.29,0,0,0-1.07-.65c-.43-.16-1-.35-1.78-.56a22,22,0,0,1-2.67-.91,4.65,4.65,0,0,1-1.78-1.39,3.81,3.81,0,0,1-.75-2.47,4.18,4.18,0,0,1,.78-2.51,4.9,4.9,0,0,1,2.15-1.66,8.43,8.43,0,0,1,3.23-.58,11.07,11.07,0,0,1,3.22.48,10.81,10.81,0,0,1,2.81,1.27l-1.38,3A12.27,12.27,0,0,0,100.9,31.22Z"/><path class="cls-2" d="M118.22,31.43a4.86,4.86,0,0,0-2.21-.56,4.76,4.76,0,0,0-4.2,2.46,5.07,5.07,0,0,0-.64,2.52,5.2,5.2,0,0,0,.64,2.53,4.75,4.75,0,0,0,1.75,1.81,4.63,4.63,0,0,0,2.45.67,5.16,5.16,0,0,0,2.17-.51,6.86,6.86,0,0,0,2-1.37l2.11,2.29a9.38,9.38,0,0,1-3,2.09,8.51,8.51,0,0,1-7.69-.31,7.73,7.73,0,0,1-3-3,8.22,8.22,0,0,1-1.09-4.2,7.93,7.93,0,0,1,4.16-7.08,8.82,8.82,0,0,1,4.3-1.07,8.6,8.6,0,0,1,3.41.72,8.47,8.47,0,0,1,2.86,1.94L120.14,33A5.91,5.91,0,0,0,118.22,31.43Z"/><path class="cls-2" d="M135.28,43.88l-2.52-4.54h-3.65v4.54h-3.59V28h6.9a7.26,7.26,0,0,1,4.82,1.44,5.06,5.06,0,0,1,1.7,4.08,6.11,6.11,0,0,1-.76,3.14,5,5,0,0,1-2.22,2l3.39,5.24Zm-6.17-7.53h3.31a3.46,3.46,0,0,0,2.31-.7,2.55,2.55,0,0,0,.8-2,2.46,2.46,0,0,0-.8-2,3.57,3.57,0,0,0-2.31-.67h-3.31Z"/><path class="cls-2" d="M143.09,28h12.1v3h-8.51v3.46h7.65v3h-7.65v3.52h8.76v3H143.09Z"/><path class="cls-2" d="M159.39,28h12.1v3H163v3.46h7.65v3H163v3.52h8.76v3H159.39Z"/><path class="cls-2" d="M186.68,28h3.41V43.88h-3.27l-7.7-10.21V43.88H175.7V28H179l7.72,10.26Z"/></g></g></svg>