<svg xmlns="http://www.w3.org/2000/svg" viewBox="0 0 1527.01 988.13"><defs><style>.cls-1,.cls-4{fill:#fff;}.cls-2{fill:#fcf3ca;}.cls-3{fill:#fbec87;}.cls-4,.cls-6{stroke:#fbec87;}.cls-4,.cls-5,.cls-6{stroke-miterlimit:10;}.cls-5,.cls-6{fill:none;}.cls-5{stroke:#fcf3ca;}</style></defs><g id="Layer_2" data-name="Layer 2"><g id="Layer_1-2" data-name="Layer 1"><g id="Layer_2-2" data-name="Layer 2"><g id="Layer_1-2-2" data-name="Layer 1-2"><g id="Layer_2-2-2" data-name="Layer 2-2"><g id="Layer_1-2-2-2" data-name="Layer 1-2-2"><g id="Layer_2-2-2-2" data-name="Layer 2-2-2"><g id="Layer_1-2-2-2-2" data-name="Layer 1-2-2-2"><polygon class="cls-1" points="381.47 565.36 350.4 560.22 381.48 555.12 386.61 524.05 391.71 555.13 422.78 560.27 391.71 565.36 386.57 596.43 381.47 565.36"/><polygon class="cls-2" points="32.56 449.69 25.7 462.29 18.8 449.71 6.2 442.85 18.77 435.95 25.63 423.35 32.54 435.93 45.13 442.79 32.56 449.69"/><circle class="cls-1" cx="453.93" cy="461.05" r="2.92"/><circle class="cls-1" cx="205.44" cy="704.64" r="2.92"/><circle class="cls-1" cx="248.32" cy="494.1" r="2.92"/><circle class="cls-1" cx="400.44" cy="44.33" r="2.19"/><circle class="cls-1" cx="28.58" cy="767.5" r="2.92"/><circle class="cls-1" cx="1330.95" cy="875.99" r="2"/><circle class="cls-3" cx="99.25" cy="560.24" r="3.93"/><circle class="cls-2" cx="98.83" cy="122.43" r="2.43"/><polygon class="cls-3" points="214.5 157.05 238.04 160.94 214.49 164.81 210.6 188.35 206.74 164.8 183.19 160.91 206.74 157.04 210.64 133.5 214.5 157.05"/><circle class="cls-1" cx="2.92" cy="259.34" r="2.92" transform="matrix(0.04, -1, 1, 0.04, -256.36, 252.89)"/><circle class="cls-1" cx="251.24" cy="2.92" r="2.92"/><circle class="cls-1" cx="303.35" cy="358.41" r="1.75"/><circle class="cls-2" cx="397.52" cy="170.11" r="2.36"/><circle class="cls-3" cx="125.98" cy="324.45" r="3.93"/><circle class="cls-1" cx="453.93" cy="900.79" r="2.92"/><circle class="cls-2" cx="98.83" cy="978.89" r="2.43"/><circle class="cls-1" cx="297.51" cy="850.53" r="1.75"/><polygon class="cls-2" points="1295.39 459.81 1299.4 452.44 1303.45 459.8 1310.81 463.81 1303.46 467.85 1299.44 475.22 1295.41 467.87 1288.03 463.86 1295.39 459.81"/><circle class="cls-1" cx="545.54" cy="319.44" r="2.92"/><circle class="cls-1" cx="560.09" cy="176.01" r="2.92"/><circle class="cls-1" cx="846.58" cy="296.86" r="2.92"/><circle class="cls-1" cx="454.44" cy="741.62" r="2.92"/><circle class="cls-1" cx="999.23" cy="224.18" r="1.75"/><circle class="cls-3" cx="900.22" cy="220.26" r="3.93"/><circle class="cls-1" cx="699.04" cy="946.86" r="2.92"/><circle class="cls-1" cx="970.89" cy="804.75" r="2.92"/><circle class="cls-1" cx="562.09" cy="875.99" r="2"/><circle class="cls-4" cx="833.87" cy="907.95" r="2.92"/><circle class="cls-2" cx="899.82" cy="683.95" r="1.46"/><circle class="cls-1" cx="748.23" cy="777.58" r="2.92"/><circle class="cls-1" cx="696.12" cy="422.09" r="2.92"/><circle class="cls-3" cx="627.33" cy="621.53" r="3.93"/><circle class="cls-3" cx="873.49" cy="456.05" r="3.93"/><polygon class="cls-5" points="1452.83 844.71 1429.06 840.78 1452.84 836.89 1456.76 813.12 1460.66 836.89 1484.43 840.82 1460.66 844.72 1456.73 868.49 1452.83 844.71"/><circle class="cls-1" cx="1524.09" cy="741.62" r="2.92"/><circle class="cls-1" cx="1275.6" cy="985.21" r="2.92"/><circle class="cls-1" cx="1318.48" cy="774.66" r="1.75"/><circle class="cls-1" cx="1072.91" cy="131.62" r="2.92"/><circle class="cls-3" cx="1169.4" cy="840.8" r="3.93"/><circle class="cls-1" cx="1226.41" cy="342.31" r="2.92"/><circle class="cls-1" cx="1498.26" cy="200.2" r="2.92"/><circle class="cls-1" cx="1089.46" cy="271.45" r="2"/><circle class="cls-4" cx="1361.24" cy="303.4" r="2.92"/><circle class="cls-3" cx="906.18" cy="596.43" r="2.37"/><circle class="cls-3" cx="1481.71" cy="419.05" r="3.93"/><circle class="cls-2" cx="1428.01" cy="53.52" r="2.43"/><polygon class="cls-6" points="74.4 828.18 46.01 823.48 74.41 818.83 79.1 790.43 83.76 818.83 112.15 823.53 83.76 828.18 79.06 856.57 74.4 828.18"/><polygon class="cls-3" points="1494.28 610.73 1501.14 598.14 1508.04 610.71 1520.64 617.57 1508.07 624.47 1501.21 637.07 1494.3 624.5 1481.71 617.64 1494.28 610.73"/><circle class="cls-1" cx="1275.6" cy="173.03" r="2.92"/><circle class="cls-1" cx="1373.5" cy="638.97" r="2.92"/><circle class="cls-3" cx="1154.7" cy="16.98" r="3.93"/><circle class="cls-2" cx="1196.14" cy="605.01" r="3.93"/><polygon class="cls-2" points="1431.45 155.27 1452.12 158.84 1431.4 162.08 1427.82 182.76 1424.58 162.03 1403.9 158.46 1424.63 155.21 1428.2 134.54 1431.45 155.27"/><polygon class="cls-3" points="1062.62 718.26 1083.29 721.83 1062.56 725.07 1058.99 745.75 1055.74 725.02 1035.07 721.45 1055.8 718.2 1059.37 697.53 1062.62 718.26"/></g></g></g></g></g></g></g></g></svg>