<svg xmlns="http://www.w3.org/2000/svg" viewBox="0 0 621.1 118.82"><defs><style>.cls-1,.cls-4{opacity:0.81;}.cls-2,.cls-4{fill:#f3775b;}.cls-3{fill:#fcf3ca;}.cls-4{isolation:isolate;}.cls-5{fill:#d4674e;}</style></defs><g id="Layer_2" data-name="Layer 2"><g id="Layer_1-2" data-name="Layer 1"><g id="Layer_2-2" data-name="Layer 2"><g id="Layer_1-2-2" data-name="Layer 1-2"><g class="cls-1"><polygon class="cls-2" points="251.5 73.24 356.95 0 251.5 82.61 251.5 73.24"/></g><path class="cls-3" d="M5.18,44.23a1.83,1.83,0,0,1,.5-1.11,1.56,1.56,0,0,1,1.22-.47H19.36A1.68,1.68,0,0,1,21.09,44l9.79,32.69L40.74,44a1.86,1.86,0,0,1,1.84-1.37H54.89a1.73,1.73,0,0,1,1.17.45,1.62,1.62,0,0,1,.59,1.13q1.26,12.67,2.58,25.15T61.8,94.51v.18c0,.93-.53,1.4-1.58,1.4H50a1.5,1.5,0,0,1-1.71-1.27h0a1.61,1.61,0,0,1,0-.31L45.17,66.7l-8.1,28a1.87,1.87,0,0,1-.52.86,1.18,1.18,0,0,1-.88.5H26.2a1.35,1.35,0,0,1-.92-.48,1.69,1.69,0,0,1-.52-.88l-8.1-27.92L13.53,94.54c0,1-.64,1.58-1.77,1.58H1.57A1.37,1.37,0,0,1,0,94.94H0a2.54,2.54,0,0,1,0-.39Z"/><path class="cls-3" d="M66.2,73.29A24.11,24.11,0,0,1,67,66.91a23.42,23.42,0,0,1,6-10.42,23.14,23.14,0,0,1,4.77-3.65A23.51,23.51,0,0,1,111.49,64a23.27,23.27,0,0,1,1.85,9.31A23.53,23.53,0,0,1,89.79,96.94a23.91,23.91,0,0,1-6.35-.83,23.3,23.3,0,0,1-14.11-10.8,23.62,23.62,0,0,1-3.22-12Zm13.14,0a13.17,13.17,0,0,0,.73,4.44,10.57,10.57,0,0,0,2.09,3.58,9.83,9.83,0,0,0,3.28,2.4,10.16,10.16,0,0,0,4.34.88A9.91,9.91,0,0,0,94,83.71a9.7,9.7,0,0,0,3.2-2.4,10.37,10.37,0,0,0,2-3.58,14.21,14.21,0,0,0,0-8.84,11.32,11.32,0,0,0-2-3.67,9.43,9.43,0,0,0-7.41-3.44,10,10,0,0,0-4.34.92,9.79,9.79,0,0,0-3.28,2.5,11.54,11.54,0,0,0-2.09,3.67A13.28,13.28,0,0,0,79.34,73.29Z"/><path class="cls-3" d="M123.4,43.26a2,2,0,0,1,.74-1.67,8.46,8.46,0,0,1,2.1-1.06l8.17-2.85h.65a1.85,1.85,0,0,1,1.78.77,4,4,0,0,1,.45,2V51.79h6a2.56,2.56,0,0,1,1.87.69,2.64,2.64,0,0,1,.72,2v7a3,3,0,0,1-.72,2.21,2.53,2.53,0,0,1-1.87.7h-6v29a2.63,2.63,0,0,1-.79,2.07,3.14,3.14,0,0,1-2.19.7h-8.14a2.46,2.46,0,0,1-2.77-2.08,2,2,0,0,1,0-.69V64.44h-2.62c-1.85,0-2.78-1-2.78-2.91v-7a2.44,2.44,0,0,1,2.07-2.75,2.51,2.51,0,0,1,.67,0h2.62Z"/><path class="cls-3" d="M151.51,35a2.91,2.91,0,0,1,.65-2.14,2.8,2.8,0,0,1,2-.63h8.35a3.06,3.06,0,0,1,2,.63,2.61,2.61,0,0,1,.78,2.14v7a2.56,2.56,0,0,1-.2.94,3.66,3.66,0,0,1-.56,1,3.09,3.09,0,0,1-.88.77,2.16,2.16,0,0,1-1.17.31h-8.35q-2.67,0-2.67-3Zm0,18.22a3,3,0,0,1,.65-2,2.42,2.42,0,0,1,2-.83h8.24a2.68,2.68,0,0,1,.94.2,3.14,3.14,0,0,1,.93.57A3.69,3.69,0,0,1,165,52a2,2,0,0,1,.31,1.15V93.32a2.66,2.66,0,0,1-.76,2.07,3,3,0,0,1-2.16.7h-8.24c-1.78,0-2.67-.92-2.67-2.77Z"/><path class="cls-3" d="M172.57,73.29a24.1,24.1,0,0,1,.85-6.38,23.42,23.42,0,0,1,6-10.42,23.14,23.14,0,0,1,4.77-3.65A23.51,23.51,0,0,1,217.9,64a23.29,23.29,0,0,1,1.9,9.31,23.51,23.51,0,0,1-23.58,23.63,23.91,23.91,0,0,1-6.35-.83,23.32,23.32,0,0,1-14.07-10.8,23.83,23.83,0,0,1-3.23-12Zm13.14,0a13.7,13.7,0,0,0,.74,4.44,10.57,10.57,0,0,0,2.09,3.58,9.83,9.83,0,0,0,3.28,2.4,10.46,10.46,0,0,0,4.33.88,9.91,9.91,0,0,0,4.23-.88,9.74,9.74,0,0,0,3.21-2.4,10.37,10.37,0,0,0,2-3.58,14.21,14.21,0,0,0,0-8.84,11.32,11.32,0,0,0-2-3.67,9.44,9.44,0,0,0-7.44-3.44,10,10,0,0,0-4.33.92,9.79,9.79,0,0,0-3.28,2.5,11.54,11.54,0,0,0-2.09,3.67A13.58,13.58,0,0,0,185.71,73.29Z"/><path class="cls-3" d="M227.94,51a2.25,2.25,0,0,1,1-.5,4.86,4.86,0,0,1,1-.11h5.44a2.34,2.34,0,0,1,1.11.24,2.24,2.24,0,0,1,.8.63,3.46,3.46,0,0,1,.52.89l.38,1,1.11,4.6a16.44,16.44,0,0,1,1.57-2.53,12.91,12.91,0,0,1,2.61-2.66,15.2,15.2,0,0,1,3.76-2.08,14.12,14.12,0,0,1,5.06-.84,17,17,0,0,1,13.16,5.88,19.51,19.51,0,0,1,3.65,6.38,23.21,23.21,0,0,1,1.3,7.79V93.3a3.08,3.08,0,0,1-.6,2.07,2.29,2.29,0,0,1-1.89.7h-8.31a3.23,3.23,0,0,1-2.13-.52,2.75,2.75,0,0,1-.57-2V70.12a6.41,6.41,0,0,0-.71-2.94,8.23,8.23,0,0,0-1.87-2.4,8.65,8.65,0,0,0-2.61-1.68,7.49,7.49,0,0,0-3-.61,6.76,6.76,0,0,0-2.65.58,8.79,8.79,0,0,0-2.48,1.6,9.49,9.49,0,0,0-1.91,2.41,7.19,7.19,0,0,0-.88,3v23.4a3.62,3.62,0,0,1-.23,1.22,1.9,1.9,0,0,1-.71.94A3.2,3.2,0,0,1,239,96a3.8,3.8,0,0,1-.95.11h-8.14A2.52,2.52,0,0,1,227,94v0a3.75,3.75,0,0,1,0-.67V53.08a2.75,2.75,0,0,1,.3-1.26,2.27,2.27,0,0,1,.85-.89Z"/><path class="cls-3" d="M306.06,44.23a2.09,2.09,0,0,1,.5-1.11,1.6,1.6,0,0,1,1.23-.47h12.45A1.68,1.68,0,0,1,322,44l9.83,32.69L341.67,44a1.86,1.86,0,0,1,1.84-1.37H355.8a1.73,1.73,0,0,1,1.17.45,1.68,1.68,0,0,1,.59,1.13q1.23,12.67,2.55,25.15t2.58,25.15v.18c0,.93-.53,1.4-1.59,1.4H350.92a1.5,1.5,0,0,1-1.71-1.27h0a1.61,1.61,0,0,1,0-.31L346.06,66.7l-8.1,28a2,2,0,0,1-.53.86,1.18,1.18,0,0,1-.88.5h-9.47a1.37,1.37,0,0,1-.91-.48,1.71,1.71,0,0,1-.53-.88l-8.1-27.92-3.13,27.76a1.53,1.53,0,0,1-1.5,1.59,1.13,1.13,0,0,1-.26,0H302.46a1.38,1.38,0,0,1-1.55-1.2h0a2.41,2.41,0,0,1,0-.38Z"/><path class="cls-3" d="M415.54,93.45a3.33,3.33,0,0,1-.22,1.17A2.78,2.78,0,0,1,413.66,96a4.73,4.73,0,0,1-.93.11h-7.09a3.27,3.27,0,0,1-1.23-.2,1.88,1.88,0,0,1-.75-.56,2.92,2.92,0,0,1-.49-.88c-.13-.35-.27-.72-.41-1.13l-1-2.7c-.65.65-1.35,1.34-2.12,2.07a18.94,18.94,0,0,1-2.54,2,15,15,0,0,1-3,1.57,9.46,9.46,0,0,1-3.45.63,23.39,23.39,0,0,1-11.9-3.19A22.79,22.79,0,0,1,374,90.05a23.54,23.54,0,0,1-6-10.44,24.32,24.32,0,0,1-.82-6.35,23.33,23.33,0,0,1,23-23.62h.45a11.87,11.87,0,0,1,4.1.67,13.83,13.83,0,0,1,3.4,1.74,17.12,17.12,0,0,1,2.78,2.45,28,28,0,0,1,2.21,2.77l1.4-4.35c.24-.6.44-1.09.6-1.46a2.43,2.43,0,0,1,.5-.83,1.38,1.38,0,0,1,.67-.36,5.2,5.2,0,0,1,1.11-.09h5.37a4.73,4.73,0,0,1,.93.11,1.76,1.76,0,0,1,.94.5,2.11,2.11,0,0,1,.72.9,3.05,3.05,0,0,1,.22,1.15ZM380.08,73.29a13.16,13.16,0,0,0,.72,4.49,10.62,10.62,0,0,0,2.11,3.58,9.95,9.95,0,0,0,7.56,3.28,11.09,11.09,0,0,0,4.48-.88,11.24,11.24,0,0,0,3.6-2.4,10.84,10.84,0,0,0,2.4-3.58,11.62,11.62,0,0,0-2.4-12.51,11.15,11.15,0,0,0-3.6-2.5,10.93,10.93,0,0,0-4.48-.92,9.86,9.86,0,0,0-4.27.92,10.31,10.31,0,0,0-3.29,2.5,11.74,11.74,0,0,0-2.11,3.62A13.14,13.14,0,0,0,380.08,73.29Z"/><path class="cls-3" d="M425.11,50.78a2.25,2.25,0,0,1,1-.5,4.86,4.86,0,0,1,1-.11h5.43a2.45,2.45,0,0,1,1.14.22,2,2,0,0,1,.73.59,3.19,3.19,0,0,1,.49.86c.13.33.26.68.38,1.07l1.51,4.35c.67-.86,1.35-1.74,2-2.64a13.75,13.75,0,0,1,2.43-2.45,12.39,12.39,0,0,1,3.35-1.82,13.71,13.71,0,0,1,4.75-.72,22.51,22.51,0,0,1,9.09,1.82,21.48,21.48,0,0,1,7.17,5,23.34,23.34,0,0,1,4.7,7.49,26.33,26.33,0,0,1,0,18.59,23.15,23.15,0,0,1-4.7,7.51,22.15,22.15,0,0,1-16.26,6.84,13.25,13.25,0,0,1-4-.56,11.74,11.74,0,0,1-3-1.46,14.75,14.75,0,0,1-2.33-2l-2-2.16v16.78a2.66,2.66,0,0,1-.64,1.83,2.48,2.48,0,0,1-2,.76h-8.24a3.07,3.07,0,0,1-.94-.18,3.86,3.86,0,0,1-.94-.5,3.49,3.49,0,0,1-.72-.81,2.2,2.2,0,0,1-.28-1.1V52.87a2.3,2.3,0,0,1,.27-1.18A4,4,0,0,1,425.11,50.78Zm33.63,22.47a12.86,12.86,0,0,0-.76-4.38,11.2,11.2,0,0,0-2.12-3.62,10,10,0,0,0-3.28-2.44,9.66,9.66,0,0,0-4.21-.9,11.17,11.17,0,0,0-4.3.84,11.55,11.55,0,0,0-6,5.74A10.64,10.64,0,0,0,437,72.78v.54a11.22,11.22,0,0,0,.9,4.46,11.73,11.73,0,0,0,2.44,3.62A11.88,11.88,0,0,0,444,83.78a11.07,11.07,0,0,0,4.43.9,9.66,9.66,0,0,0,4.21-.9,10.2,10.2,0,0,0,3.28-2.43,11.1,11.1,0,0,0,2.1-3.57,13,13,0,0,0,.76-4.49Z"/><path class="cls-3" d="M480.08,50.78a2.25,2.25,0,0,1,1-.5,4.86,4.86,0,0,1,1-.11h5.43a2.45,2.45,0,0,1,1.14.22,2,2,0,0,1,.73.59,3.19,3.19,0,0,1,.49.86c.13.33.26.68.38,1.07l1.51,4.35c.67-.86,1.35-1.74,2-2.64a13.75,13.75,0,0,1,2.43-2.45,12.39,12.39,0,0,1,3.35-1.82,13.71,13.71,0,0,1,4.75-.72,22.51,22.51,0,0,1,9.09,1.82,21.48,21.48,0,0,1,7.17,5,23.34,23.34,0,0,1,4.7,7.49,26.33,26.33,0,0,1,0,18.59,23.15,23.15,0,0,1-4.7,7.51,22.15,22.15,0,0,1-16.26,6.84,13.25,13.25,0,0,1-4-.56,11.74,11.74,0,0,1-3-1.46,14.75,14.75,0,0,1-2.33-2l-2-2.16v16.78a2.66,2.66,0,0,1-.64,1.83,2.48,2.48,0,0,1-2,.76h-8.24a3.07,3.07,0,0,1-.94-.18,3.86,3.86,0,0,1-.94-.5,3.49,3.49,0,0,1-.72-.81,2.2,2.2,0,0,1-.28-1.1V52.87a2.3,2.3,0,0,1,.27-1.18A4,4,0,0,1,480.08,50.78Zm33.63,22.47a12.86,12.86,0,0,0-.76-4.38,11,11,0,0,0-2.15-3.58,10,10,0,0,0-3.28-2.44,9.66,9.66,0,0,0-4.21-.9,11.17,11.17,0,0,0-4.3.84,11.55,11.55,0,0,0-6,5.74,10.81,10.81,0,0,0-1.08,4.25v.54a11.19,11.19,0,0,0,.87,4.46,11.73,11.73,0,0,0,2.44,3.62,12.13,12.13,0,0,0,3.67,2.38,11.07,11.07,0,0,0,4.43.9,9.66,9.66,0,0,0,4.21-.9,10.17,10.17,0,0,0,3.25-2.41A11.25,11.25,0,0,0,513,77.78a13.45,13.45,0,0,0,.76-4.49Z"/><path class="cls-3" d="M572.42,90.64a23.74,23.74,0,0,1-7.13,4.55,21.65,21.65,0,0,1-8.38,1.64,24.48,24.48,0,0,1-17-6.79,24,24,0,0,1-5.26-7.5,22.85,22.85,0,0,1-1.94-9.4,24.17,24.17,0,0,1,3-11.7,23.86,23.86,0,0,1,3.45-4.77,22.18,22.18,0,0,1,16.26-7,21,21,0,0,1,5.79.79,22.55,22.55,0,0,1,13.28,10.1,20.83,20.83,0,0,1,2.31,5.11,19.31,19.31,0,0,1,.81,5.6q0,1.88-.06,3.06a3.34,3.34,0,0,1-.55,1.89,2.67,2.67,0,0,1-1.68,1,16.47,16.47,0,0,1-3.44.27h-26a8.83,8.83,0,0,0,4,6.32A10.25,10.25,0,0,0,553,85.12a12.66,12.66,0,0,0,3.06.4,13.22,13.22,0,0,0,2.67-.27,19.79,19.79,0,0,0,2.64-.72,16.14,16.14,0,0,0,2.34-1,7.83,7.83,0,0,0,1.71-1.25,7.5,7.5,0,0,1,1-.7,1.83,1.83,0,0,1,.88-.23,1.7,1.7,0,0,1,1,.32,7.09,7.09,0,0,1,1.1.94l3.81,4.32a2.19,2.19,0,0,1,.5.84,2.58,2.58,0,0,1,.11.78,1.91,1.91,0,0,1-.39,1.24A4.91,4.91,0,0,1,572.42,90.64Zm-17.32-30a6.85,6.85,0,0,0-2.71.56,10.55,10.55,0,0,0-2.47,1.49,13.58,13.58,0,0,0-3.56,4.54H564.8a20.48,20.48,0,0,0-1.63-2.59,11,11,0,0,0-2-2.09,8.69,8.69,0,0,0-2.59-1.41,10.51,10.51,0,0,0-3.48-.49Z"/><path class="cls-3" d="M585.09,53.05a2.75,2.75,0,0,1,.27-1.17A2.46,2.46,0,0,1,586,51a3.56,3.56,0,0,1,1.94-.61h5.44a2,2,0,0,1,1.08.25,2.16,2.16,0,0,1,.66.65,3.86,3.86,0,0,1,.47.9,9.25,9.25,0,0,0,.49,1,5.5,5.5,0,0,0,.29.7c.15.37.3.78.46,1.22s.33.87.49,1.26l.31.78c.72-.79,1.41-1.63,2.07-2.5a23.16,23.16,0,0,1,2.1-2.43,10,10,0,0,1,2.49-1.84,6.89,6.89,0,0,1,3.24-.72A19.16,19.16,0,0,1,611,50a14.4,14.4,0,0,1,2.9.84,18.06,18.06,0,0,1,2.72,1.43c.9.57,1.87,1.24,2.93,2,1.66.89,2,2.23.94,4l-3.28,5.56a3,3,0,0,1-1.76,1.33,3.38,3.38,0,0,1-2.27-.32A11,11,0,0,0,610,62.59a8.67,8.67,0,0,0-3.66-.76,6.9,6.9,0,0,0-2.46.4A6.52,6.52,0,0,0,602,63.29,10.93,10.93,0,0,0,600.39,65c-.5.67-1,1.42-1.51,2.23V93.32a2.93,2.93,0,0,1-.66,2.07,3,3,0,0,1-2.22.7h-8.09c-1.87,0-2.81-.92-2.81-2.77Z"/><polygon class="cls-4" points="251.5 82.61 207.22 117.31 201.57 107.92 251.5 73.24 251.5 82.61"/><ellipse class="cls-5" cx="203.87" cy="113.06" rx="5.78" ry="5.76" transform="translate(-8.61 17.16) rotate(-4.72)"/></g></g></g></g></svg>