<svg xmlns="http://www.w3.org/2000/svg" viewBox="0 0 654.33 188.07"><defs><style>.cls-1{fill:#fbec87;}.cls-2{fill:#f3775b;}.cls-3{fill:#41bdd7;}</style></defs><g id="Layer_2" data-name="Layer 2"><g id="Layer_1-2" data-name="Layer 1"><path class="cls-1" d="M365.56,97.3c-7.35-7.58-21.37-7-35.83-1.45l-1.55-.32-.49-.09a52.13,52.13,0,0,0-5.63-.66l-.62,0c-.94,0-1.89-.08-2.85-.08-18.77,0-36.09,9.69-41.49,28.17a44.44,44.44,0,0,0-1.75,12.62h0c0,.87,0,1.71.08,2.55,0,.19,0,.38,0,.57,0,.77.12,1.54.21,2.29,0,0,0,.09,0,.14a40.75,40.75,0,0,0,1.29,6.31l-.11-.33c-6,14.21-6,27.3,1.35,34.88,12.68,13.1,42.51,4.79,66.63-18.56S378.24,110.4,365.56,97.3Zm-10.3,2.87c4.54,4.68,5.74,11.87,4.09,20.09a36.62,36.62,0,0,0-10.56-15.19l0,0-.75-.61-.19-.15a38.06,38.06,0,0,0-4.32-3l-.13-.07c-.72-.44-1.47-.86-2.22-1.25l-.14-.07a42.23,42.23,0,0,0-4.91-2.16l-.22-.08a46.54,46.54,0,0,0-4.48-1.37C341.35,93.67,350,94.76,355.26,100.17ZM337.76,156c-20.39,19.75-45.61,26.77-56.34,15.7-4.88-5-5.92-13-3.67-22l-.08-.25c0,.13.09.27.14.4.11.31.23.62.35.93l.42,1.05c.11.23.22.47.32.7s.25.55.38.82l.36.73.4.76c.13.24.26.48.4.71l.41.72.44.71c.14.23.29.45.43.67l.48.71.44.63.52.69.45.59c.19.23.37.47.56.69l.45.53c.15.18.29.35.45.52h0a39.74,39.74,0,0,0,3.26,3.23,19.61,19.61,0,0,1-5-12.94,16.93,16.93,0,0,1,10.84-16.11,14.83,14.83,0,0,1-7.91-13.48c.39-11.24,10.06-18.27,23.25-18.27,13.77,0,21.59,6.84,21.2,15.43-.3,5.77-3.91,10.06-10.36,10.06-4.1,0-6.93-2.53-6.93-5.56a2.91,2.91,0,0,0,3.12-2.84c0-2.44-2.73-4.49-6.74-4.49-4.3,0-7.52,2.74-7.52,7.42s5.57,7.72,11.43,7.72v5.37c-4.1,0-9.48,3.52-9.77,10.46-.29,7.81,6.55,14.26,16.31,14.26,11.43,0,16.9-7.13,16.9-14.07a15.09,15.09,0,0,0-1.56-6.64,61.4,61.4,0,0,1-6,2.34,2.52,2.52,0,0,0-1.95,2.45c0,1.17,1,2,2.64,2-.2,3.32-2.64,6.93-7.92,6.93-6.15,0-9.18-4.2-9-8.2.09-5,4.29-8,10.94-11.53,7.42-3.9,11.43-8.79,11.62-15.82.1-4.89-1.86-9.09-3.32-10.55,1.27-1.47,4.49-3,8.79-3,6.64,0,12.6,5.08,12.6,13.87,0,7.52-4.39,13.19-10.74,17.39a18.23,18.23,0,0,1,4.46,7.26A91.27,91.27,0,0,1,337.76,156Z"/><path class="cls-2" d="M90.23,12.17V11.06h37.68v1.11c-4,1.66-7.78,5.33-7.78,13.67v30c-.45,22.46-16.45,34.8-38,34.8S44.76,78.42,44.76,55.85v-30c0-7.56-3.22-11.78-7.56-13.67V11.06H74.89v1C70.11,13.72,67,17.84,67,25.84V56c0,9.56,4.56,16.9,15.12,16.9S97.67,65.52,97.67,56c0,0-2.89-42-7.44-43.79"/><path class="cls-2" d="M183.26,88.87V87.76c4.34-1.45,7.67-4.67,7.67-9.12C190.93,69,180.82,57,160,38.4V74.19c0,7.45,2.45,11.34,7.67,13.57v1.11H130.13V87.76c5.22-2.23,7.67-6.12,7.67-13.57V25.73c0-7.45-2.45-11.34-7.67-13.56V11.05l29.9.12L190.93,43V25.73c0-7.45-2.44-11.34-7.67-13.56V11.05h37.57v1.12c-5.22,2.22-7.67,6.11-7.67,13.56V74.19c0,7.45,2.45,11.34,7.67,13.57v1.11Z"/><path class="cls-2" d="M223.05,88.87V87.76c5.23-2.23,7.67-6.12,7.67-13.57V25.73c0-7.45-2.44-11.34-7.67-13.56V11.05h37.57v1.12C255.4,14.39,253,18.28,253,25.73V74.19c0,7.45,2.44,11.34,7.66,13.57v1.11Z"/><path class="cls-2" d="M288.86,88.87V87.76c1.44-1.12,2.67-3.78.66-9L265.07,24.39c-2.45-5.44-4.56-9.44-7.23-12.22V11.05h38.8v1.12c-4,2.66-6.89,9.78-3.67,18.78L304.2,62.3,316.31,31c3.45-8.89.56-16.12-3.67-18.78V11.05h36v1.12c-3.33,3.78-5.33,8.22-8.67,15.34L316.42,78c-2.44,5.78-1.22,8.56.34,9.79v1.11Z"/><path class="cls-2" d="M345.88,88.87V87.76c4.89-1.56,7.67-6.34,7.67-13.57V25.84c0-7.45-2.45-11.89-7.67-13.67V11.05h53c11.12,0,13.56-1.55,13.56-1.55l4.78,23-1,.33c-2.22-1.78-5.78-4-14-4H375.78V46c2.55-5.11,8.45-8.67,16.23-8.67,10.34,0,17.34,5.56,17.34,13.56C409.35,57.52,403.68,61,398,61c0-3.12-2.33-6.23-8-6.23-7.56,0-14.23,6.56-14.23,16.34h27.57a20.48,20.48,0,0,0,15-5.89l.89.45-4.55,25.45s-3.45-2.22-14.68-2.22Z"/><path class="cls-2" d="M420.35,88.87V87.76c5.23-2.23,7.67-6.12,7.67-13.56V25.73c0-6.56-2-11.12-7.67-13.56V11.05h49.24c21.9,0,33.35,11.56,33.35,26.35,0,12.89-9.89,23-24.9,23a15.84,15.84,0,0,1-2.22-.11c4.78,3.11,9.11,5.89,14.23,5.89a6.66,6.66,0,0,0,5.89-3.33,12.26,12.26,0,0,1,7.34,11.22c0,8.78-5.56,16.34-17.68,16.34-18.45,0-22.79-27-35.35-29.9V74.2c0,7.44,2.45,11.33,7.67,13.56v1.11Zm29.9-60V46.63h19c6.89,0,11.45-3,11.45-8.67,0-6.23-4.56-9.12-11.45-9.12Z"/><path class="cls-2" d="M572.3,37.07c-7.67-6.78-22.56-11.34-32.79-11.34-8.45,0-10.67,2.56-10.67,6,0,4.11,5.56,5.56,22.12,8.23,19.78,3.22,26.68,11.89,26.68,23.79,0,14.67-10.45,27-34.91,27-23.79,0-35-11.79-35-22.79,0-9.78,7.89-11.78,7.89-11.78,1.89,8.89,13.67,16.45,29.68,16.45,8.34,0,11.67-2,11.67-6.23,0-5.89-7.34-7.11-24-9.89-18-3-25-11-25-22.79,0-13.78,13-24.34,31.12-24.34,13.45,0,20.79,3.22,25,3.22a9.41,9.41,0,0,0,6-1.89l3.22,25.79Z"/><path class="cls-2" d="M581,88.87V87.76c4.89-1.56,7.67-6.34,7.67-13.57V25.84c0-7.45-2.45-11.89-7.67-13.67V11.05h53c11.12,0,13.56-1.55,13.56-1.55l4.78,23-1,.33c-2.22-1.78-5.78-4-14-4H610.87V46c2.55-5.11,8.45-8.67,16.23-8.67,10.34,0,17.34,5.56,17.34,13.56,0,6.67-5.67,10.12-11.34,10.12,0-3.12-2.33-6.23-8-6.23-7.56,0-14.23,6.56-14.23,16.34h27.57a20.48,20.48,0,0,0,15-5.89l.89.45-4.56,25.45s-3.44-2.22-14.67-2.22Z"/><path class="cls-3" d="M234.45,174.25v-1.11c5.23-2.23,7.67-6.12,7.67-13.57V130.78l-20.34,28.68L201.21,131v28.56c0,7.45,2.45,11.34,7.68,13.57v1.11H171.31v-1.11c5.23-2.23,7.67-6.12,7.67-13.57V111.11c0-7.45-2.44-11.34-7.67-13.56V96.44l29.9.11,20.57,30.34,20.34-30.34,29.9-.11v1.11c-5.22,2.22-7.67,6.11-7.67,13.56v48.46c0,7.45,2.45,11.34,7.67,13.57v1.11Z"/><path class="cls-3" d="M365.28,174.25v-1.11c5.22-2.23,7.67-6.12,7.67-13.56V111.11c0-6.56-2-11.12-7.67-13.56V96.44h49.24c21.9,0,33.35,11.56,33.35,26.34,0,12.89-9.89,23-24.9,23a15.7,15.7,0,0,1-2.22-.11c4.78,3.11,9.11,5.89,14.22,5.89a6.67,6.67,0,0,0,5.9-3.33,12.25,12.25,0,0,1,7.33,11.22c0,8.78-5.56,16.34-17.67,16.34-18.46,0-22.79-27-35.35-29.9v13.68c0,7.44,2.44,11.33,7.67,13.56v1.11Zm29.9-60V132h19c6.89,0,11.45-3,11.45-8.67,0-6.23-4.56-9.12-11.45-9.12Z"/><path class="cls-3" d="M452.64,174.25v-1.11c4.89-1.56,7.67-6.34,7.67-13.57V111.22c0-7.45-2.44-11.89-7.67-13.67V96.44h53c11.12,0,13.57-1.56,13.57-1.56l4.78,23-1,.33c-2.23-1.78-5.78-4-14-4H482.54v17.12c2.56-5.11,8.45-8.67,16.23-8.67,10.34,0,17.34,5.56,17.34,13.56,0,6.67-5.66,10.12-11.33,10.12,0-3.12-2.34-6.23-8-6.23-7.56,0-14.23,6.56-14.23,16.34h27.57a20.53,20.53,0,0,0,15-5.89l.89.45-4.56,25.45s-3.45-2.22-14.67-2.22Z"/><path class="cls-1" d="M119.71,75.93a6,6,0,1,0,6-6,6,6,0,0,0-6,6"/><path class="cls-1" d="M122.43,80.41,0,.86.52,0,128.86,71.53ZM12.91,8.05l109.27,71,5.21-7.2Z"/><path class="cls-2" d="M82.11,90.65c-21.45,0-37.35-12.23-37.35-34.8v-30c0-7.56-3.22-11.78-7.56-13.67V11.05H74.89v1C70.11,13.72,67,17.84,67,25.84V56c0,9.56,4.56,16.9,15.12,16.9s21.57,17.79,0,17.79"/><polygon class="cls-1" points="481.85 13.69 472.23 12.46 481.74 10.54 482.98 0.91 484.89 10.42 494.52 11.66 485.01 13.57 483.77 23.2 481.85 13.69"/></g></g></svg>