<svg xmlns="http://www.w3.org/2000/svg" viewBox="0 0 210.7 74.96"><defs><style>.cls-1{fill:#f3775b;}.cls-2{fill:#41bdd7;}.cls-3{fill:#fbec87;}</style></defs><g id="Layer_2" data-name="Layer 2"><g id="Layer_1-2" data-name="Layer 1"><path class="cls-1" d="M41.21,8.75V7.88H70.5v.87c-3.11,1.29-6,4.15-6,10.62V42.7C64.11,60.16,51.67,69.75,34.9,69.75s-29-9.51-29-27V19.37c0-5.87-2.5-9.15-5.87-10.62V7.88H29.29v.78c-3.72,1.3-6.14,4.49-6.14,10.71V42.79c0,7.43,3.55,13.13,11.75,13.13S47,50.22,47,42.79c0,0-2.25-32.66-5.79-34"/><path class="cls-2" d="M181.5,68.36V67.5c4.06-1.73,6-4.75,6-10.54V34.58L171.65,56.87l-16-22.11V57c0,5.79,1.9,8.81,6,10.54v.86H132.42V67.5c4.06-1.73,6-4.75,6-10.54V19.29c0-5.79-1.91-8.81-6-10.54V7.88L155.67,8l16,23.59L187.46,8l23.24-.09v.87c-4.06,1.73-6,4.75-6,10.54V57c0,5.79,1.9,8.81,6,10.54v.86Z"/><path class="cls-3" d="M138.2,4.41c-5.71-5.9-16.6-5.47-27.84-1.13L109.15,3,108.77,3a39.2,39.2,0,0,0-4.37-.51l-.49,0c-.73,0-1.47-.06-2.21-.06-14.59,0-28,7.53-32.25,21.89a34.51,34.51,0,0,0-1.36,9.81h0c0,.67,0,1.33.06,2l0,.44c0,.6.1,1.2.17,1.78a.37.37,0,0,0,0,.11,31.61,31.61,0,0,0,1,4.91L69.28,43c-4.65,11-4.66,21.21,1,27.11,9.85,10.18,33,3.72,51.79-14.43S148.06,14.59,138.2,4.41Zm-8,2.23c3.53,3.64,4.46,9.22,3.18,15.61a28.4,28.4,0,0,0-8.21-11.8l0,0-.58-.47-.15-.12a29.27,29.27,0,0,0-3.36-2.35L121,7.43c-.57-.34-1.15-.66-1.73-1l-.11-.06a33.43,33.43,0,0,0-3.82-1.67,1,1,0,0,0-.16-.06A34.35,34.35,0,0,0,111.7,3.6C119.39,1.59,126.14,2.44,130.2,6.64ZM116.6,50c-15.85,15.35-35.45,20.81-43.79,12.2C69,58.29,68.21,52.13,70,45.14l-.06-.2c0,.11.07.21.11.31l.27.72.33.82c.08.18.17.36.25.55s.19.43.29.64l.29.56.3.59.31.56.33.55.34.56.33.52c.12.18.25.36.37.55l.35.49.4.54.35.45.44.54c.11.14.23.28.35.41s.22.28.34.41h0a30.08,30.08,0,0,0,2.53,2.52,15.26,15.26,0,0,1-3.92-10.06,13.17,13.17,0,0,1,8.43-12.53,11.5,11.5,0,0,1-6.15-10.47c.3-8.74,7.82-14.2,18.07-14.2,10.7,0,16.78,5.31,16.47,12-.22,4.48-3,7.82-8,7.82-3.19,0-5.39-2-5.39-4.32a2.27,2.27,0,0,0,2.42-2.21c0-1.89-2.12-3.49-5.23-3.49A5.48,5.48,0,0,0,89,25.52c0,3.65,4.33,6,8.88,6V35.7c-3.19,0-7.36,2.73-7.59,8.12C90.05,49.89,95.37,54.9,103,54.9c8.88,0,13.13-5.54,13.13-10.93a11.79,11.79,0,0,0-1.21-5.16c-1.52.68-3,1.29-4.63,1.82a2,2,0,0,0-1.52,1.9c0,.91.76,1.52,2,1.52-.15,2.58-2,5.39-6.15,5.39-4.78,0-7.14-3.27-7-6.38.07-3.87,3.34-6.22,8.5-9,5.77-3,8.88-6.83,9-12.3.08-3.79-1.44-7.06-2.58-8.2,1-1.14,3.49-2.35,6.84-2.35,5.16,0,9.79,3.95,9.79,10.78,0,5.85-3.42,10.25-8.35,13.51a14.25,14.25,0,0,1,3.47,5.65A70.65,70.65,0,0,1,116.6,50Z"/></g></g></svg>